<?xml version="1.0" standalone="no"?>
<!DOCTYPE svg PUBLIC "-//W3C//DTD SVG 20010904//EN"
 "http://www.w3.org/TR/2001/REC-SVG-20010904/DTD/svg10.dtd">
<svg version="1.0" xmlns="http://www.w3.org/2000/svg"
 width="1536.000000pt" height="1536.000000pt" viewBox="0 0 1536.000000 1536.000000"
 preserveAspectRatio="xMidYMid meet">
<g transform="translate(0.000000,1536.000000) scale(0.100000,-0.100000)"
fill="#000000" stroke="none">
<path d="M8300 13941 c-112 -8 -272 -40 -365 -73 -16 -5 -41 -12 -55 -15 -14
-3 -34 -12 -45 -19 -11 -8 -27 -14 -37 -14 -16 0 -130 -48 -168 -70 -8 -5 -35
-19 -60 -31 -25 -13 -73 -42 -108 -66 -35 -24 -67 -43 -72 -43 -5 0 -13 -6
-17 -13 -4 -7 -37 -35 -73 -62 -81 -61 -6283 -6262 -6365 -6364 -117 -144
-202 -282 -272 -441 -9 -19 -22 -47 -30 -62 -7 -14 -13 -33 -13 -42 0 -8 -6
-30 -14 -48 -8 -18 -21 -60 -29 -93 -9 -33 -21 -80 -28 -105 -14 -48 -21 -104
-39 -297 -9 -94 -9 -146 0 -225 7 -57 15 -132 19 -168 5 -36 14 -87 20 -115
49 -193 45 -182 105 -327 34 -82 74 -161 118 -233 10 -16 21 -37 25 -45 7 -15
108 -152 152 -205 50 -60 3118 -3128 3182 -3181 37 -31 76 -61 87 -67 85 -48
165 -85 212 -99 30 -9 73 -23 95 -30 33 -10 736 -13 3800 -16 3697 -2 3760 -2
3815 17 30 11 71 27 90 37 57 28 142 123 179 199 32 65 34 77 35 171 0 72 -4
113 -16 140 -9 22 -19 46 -23 54 -29 71 -122 164 -200 200 -100 46 11 44
-2142 47 -1113 2 -2023 7 -2023 11 0 4 1178 1186 2619 2627 2731 2733 2691
2692 2812 2895 55 94 131 250 142 295 3 11 16 52 30 90 61 179 78 289 84 551
3 177 1 233 -11 288 -9 37 -16 79 -16 93 0 41 -64 258 -106 358 -46 112 -184
359 -214 385 -3 3 -28 34 -54 70 -64 85 -3531 3555 -3639 3641 -69 56 -146
108 -242 166 -24 14 -157 79 -200 98 -91 39 -107 45 -125 45 -11 0 -34 6 -52
14 -145 62 -496 97 -768 77z m380 -851 c19 -6 53 -15 75 -20 53 -11 114 -34
189 -70 74 -37 85 -43 157 -97 72 -54 3505 -3486 3562 -3562 49 -63 107 -157
107 -170 0 -5 6 -22 14 -38 18 -36 39 -93 62 -168 27 -92 25 -372 -4 -475 -27
-96 -51 -162 -63 -174 -5 -6 -9 -16 -9 -23 0 -17 -53 -104 -106 -173 -51 -67
-3734 -3746 -3782 -3778 -23 -15 -50 11 -2408 2369 -1311 1311 -2384 2388
-2384 2394 0 5 846 856 1881 1890 1908 1909 1929 1929 2064 1998 84 42 162 71
245 90 77 18 347 22 400 7z m-2819 -6989 c1308 -1308 2379 -2385 2379 -2393 0
-8 -328 -341 -729 -741 l-729 -727 -758 0 c-418 0 -892 3 -1054 7 l-295 6
-1530 1531 c-842 842 -1551 1558 -1576 1591 -43 57 -123 209 -148 285 -102
296 -46 656 141 907 59 79 1886 1913 1906 1913 8 0 1084 -1071 2393 -2379z"/>
<path d="M13635 2236 c-5 -2 -37 -9 -70 -17 -33 -7 -67 -18 -75 -24 -8 -7 -24
-15 -35 -19 -26 -8 -104 -80 -141 -131 -58 -78 -69 -118 -68 -245 0 -109 2
-119 32 -182 18 -36 51 -85 73 -107 43 -46 140 -111 162 -111 8 0 31 -7 51
-15 51 -22 912 -18 966 4 162 65 241 149 291 306 23 74 24 131 3 204 -37 124
-108 220 -203 274 -103 59 -109 59 -561 63 -228 2 -419 2 -425 0z"/>
</g>
</svg>
