<?xml version="1.0" standalone="no"?>
<!DOCTYPE svg PUBLIC "-//W3C//DTD SVG 20010904//EN"
 "http://www.w3.org/TR/2001/REC-SVG-20010904/DTD/svg10.dtd">
<svg version="1.0" xmlns="http://www.w3.org/2000/svg"
 width="1536.000000pt" height="1536.000000pt" viewBox="0 0 1536.000000 1536.000000"
 preserveAspectRatio="xMidYMid meet">
<g transform="translate(0.000000,1536.000000) scale(0.100000,-0.100000)"
fill="#000000" stroke="none">
<path d="M7325 15345 c-7 -10 -37 -16 -105 -20 -118 -7 -359 -45 -490 -77 -25
-6 -63 -14 -85 -18 -57 -11 -134 -31 -178 -46 -20 -8 -46 -14 -57 -14 -11 0
-34 -6 -52 -14 -42 -17 -94 -35 -133 -46 -57 -16 -138 -47 -198 -76 -16 -8
-35 -14 -44 -14 -8 0 -27 -6 -41 -14 -15 -8 -49 -24 -77 -36 -65 -29 -340
-165 -385 -192 -19 -11 -77 -45 -128 -76 -51 -32 -101 -62 -110 -67 -100 -60
-358 -254 -492 -369 -58 -50 -174 -160 -259 -245 -130 -130 -189 -195 -330
-366 -46 -56 -204 -273 -210 -289 -2 -6 -17 -27 -32 -47 -16 -20 -29 -39 -29
-42 0 -3 -13 -25 -29 -49 -16 -24 -39 -61 -51 -83 -12 -22 -30 -53 -40 -70
-43 -69 -240 -474 -240 -492 0 -6 -6 -24 -14 -40 -29 -60 -60 -141 -76 -198
-11 -39 -29 -91 -46 -133 -8 -18 -14 -42 -14 -53 0 -11 -5 -30 -12 -42 -6 -12
-15 -38 -19 -57 -4 -19 -13 -55 -19 -80 -37 -144 -57 -241 -84 -410 -46 -289
-49 -337 -55 -983 l-6 -628 -40 -21 c-22 -11 -47 -25 -55 -29 -8 -5 -22 -12
-30 -15 -37 -15 -90 -42 -156 -81 -39 -24 -74 -43 -78 -43 -3 0 -35 -20 -72
-45 -36 -25 -68 -45 -71 -45 -3 0 -22 -13 -43 -30 -21 -16 -43 -30 -48 -30 -6
0 -15 -6 -19 -13 -4 -7 -44 -41 -88 -74 -44 -34 -91 -72 -105 -85 -14 -13 -54
-50 -90 -83 -170 -156 -347 -365 -485 -571 -56 -85 -64 -96 -75 -119 -6 -11
-19 -33 -30 -50 -10 -16 -38 -66 -60 -110 -23 -44 -45 -87 -49 -95 -9 -16 -35
-73 -59 -130 -8 -19 -19 -43 -23 -52 -12 -24 -39 -97 -49 -133 -4 -16 -18 -55
-30 -85 -12 -30 -25 -71 -30 -90 -16 -71 -33 -136 -46 -173 -8 -20 -14 -47
-14 -60 0 -12 -6 -53 -14 -92 -8 -38 -23 -124 -33 -190 -17 -113 -18 -251 -18
-2310 0 -2054 1 -2197 18 -2310 10 -66 24 -149 33 -185 8 -36 14 -74 14 -84 0
-11 7 -44 16 -75 8 -31 22 -81 30 -111 9 -30 20 -68 26 -85 5 -16 13 -43 18
-60 11 -38 29 -92 45 -130 7 -16 20 -50 30 -75 22 -56 62 -143 110 -240 44
-88 45 -91 110 -198 28 -46 55 -91 60 -101 6 -9 28 -41 50 -71 22 -30 51 -71
65 -91 89 -130 297 -357 466 -508 52 -47 320 -251 329 -251 2 0 34 -20 71 -45
36 -25 67 -45 69 -45 3 0 39 -20 81 -45 41 -25 80 -45 84 -45 5 0 32 -14 60
-30 28 -17 54 -30 57 -30 3 0 35 -14 70 -30 34 -17 68 -30 74 -30 6 0 23 -6
37 -14 49 -25 102 -46 117 -46 8 0 29 -6 47 -14 18 -8 60 -22 93 -31 33 -9 74
-21 90 -27 17 -6 50 -14 75 -18 25 -5 65 -13 90 -19 95 -21 208 -41 280 -48
98 -10 7062 -10 7160 0 72 7 185 27 280 48 25 6 65 14 90 19 25 4 59 12 75 18
17 6 57 18 90 27 33 9 75 23 93 31 18 8 39 14 47 14 8 0 29 6 47 14 18 8 58
24 88 36 73 29 161 69 180 81 8 5 22 12 30 15 22 8 157 79 222 116 35 20 302
200 308 207 3 4 34 29 70 56 170 129 455 425 570 594 14 20 43 61 65 91 22 30
45 62 50 71 6 10 33 55 60 101 65 107 66 110 110 198 50 100 88 185 110 240 9
25 22 59 29 75 18 41 36 94 46 130 5 17 13 44 18 60 25 73 36 113 43 150 4 22
12 58 18 80 14 56 37 180 58 315 17 108 18 252 18 2305 0 2059 -1 2197 -18
2310 -10 66 -25 152 -33 190 -8 39 -14 79 -14 90 0 10 -6 37 -14 60 -13 39
-30 104 -46 175 -5 19 -18 60 -30 90 -12 30 -26 69 -30 85 -10 36 -37 109 -49
133 -4 9 -15 34 -24 55 -34 79 -49 113 -58 127 -4 8 -26 51 -49 95 -22 44 -50
94 -60 110 -11 17 -24 39 -30 50 -11 23 -19 34 -75 119 -135 203 -344 449
-489 576 -29 25 -65 58 -81 74 -17 15 -66 55 -110 89 -44 34 -84 66 -90 72
-14 16 -199 137 -250 165 -11 6 -47 26 -80 45 -33 19 -110 60 -171 90 l-111
55 -5 627 c-5 499 -9 655 -22 758 -27 209 -65 433 -88 520 -6 22 -15 58 -19
80 -12 62 -30 127 -45 163 -8 18 -14 41 -14 52 0 11 -6 34 -14 52 -17 42 -35
94 -46 133 -5 17 -18 55 -30 85 -12 30 -26 69 -31 87 -5 18 -14 35 -19 38 -6
4 -10 13 -10 21 0 24 -192 422 -241 499 -10 17 -22 37 -26 45 -3 8 -18 33 -32
55 -14 22 -30 48 -36 57 -39 66 -95 151 -130 198 -23 30 -47 64 -53 76 -6 12
-26 39 -44 61 -18 22 -46 57 -63 79 -51 66 -127 157 -169 204 -56 61 -323 327
-372 370 -212 186 -521 412 -704 514 -19 11 -53 30 -75 42 -22 13 -76 42 -120
64 -44 23 -87 45 -95 50 -8 4 -46 23 -85 40 -137 63 -172 78 -245 105 -25 9
-58 23 -73 31 -16 8 -35 14 -42 14 -7 0 -26 6 -42 14 -36 18 -88 36 -133 46
-19 4 -51 13 -70 20 -19 7 -48 16 -65 22 -16 6 -48 14 -70 18 -22 5 -60 14
-85 20 -142 37 -243 57 -345 70 -38 5 -92 13 -120 19 -27 5 -95 12 -150 16
-71 4 -103 10 -111 20 -17 22 -674 22 -689 0z m750 -1301 c117 -16 244 -39
310 -56 22 -5 58 -13 80 -18 22 -4 55 -13 73 -19 72 -25 98 -33 127 -41 48
-13 98 -31 128 -46 16 -8 35 -14 43 -14 21 0 275 -120 389 -184 22 -12 56 -31
75 -42 84 -46 339 -224 386 -269 6 -5 41 -35 77 -65 78 -64 247 -235 333 -335
87 -101 274 -354 274 -370 0 -2 13 -23 29 -47 69 -104 241 -447 241 -481 0 -7
6 -21 14 -32 7 -11 16 -31 19 -45 3 -14 11 -41 17 -60 31 -86 38 -108 53 -160
44 -155 63 -240 91 -420 26 -161 31 -280 31 -700 l0 -405 -3195 0 -3195 0 -3
350 c-6 615 34 929 165 1300 14 39 27 81 30 95 3 14 12 34 19 45 8 11 14 25
14 32 0 35 171 376 241 481 16 24 29 45 29 47 0 16 188 270 273 370 88 101
260 274 331 331 33 27 68 56 76 65 47 46 326 242 371 261 8 3 44 23 80 45 99
60 307 158 434 205 57 21 101 36 175 59 36 11 79 25 95 31 17 5 48 13 70 18
22 4 58 12 80 18 49 13 173 37 280 53 191 29 639 31 840 3z m2990 -5105 c111
-12 226 -33 296 -55 26 -8 54 -14 63 -14 8 0 30 -6 48 -14 18 -8 53 -22 78
-31 88 -34 235 -104 285 -136 17 -10 37 -22 45 -26 8 -3 31 -19 51 -35 20 -15
42 -28 48 -28 6 0 11 -4 11 -8 0 -4 14 -16 30 -26 76 -44 276 -246 375 -376
70 -92 146 -209 166 -254 5 -12 13 -28 18 -36 19 -31 63 -127 77 -165 76 -211
106 -340 124 -520 14 -148 14 -4063 0 -4207 -11 -110 -33 -232 -56 -313 -28
-98 -77 -242 -93 -273 -5 -9 -25 -50 -45 -90 -127 -253 -338 -506 -561 -672
-106 -79 -127 -94 -160 -110 -11 -6 -33 -19 -50 -29 -30 -19 -153 -81 -210
-105 -37 -16 -81 -31 -165 -57 -36 -11 -85 -27 -110 -35 -25 -8 -57 -14 -72
-14 -14 0 -55 -8 -90 -18 -59 -16 -257 -17 -3498 -17 -3241 0 -3439 1 -3498
17 -35 10 -76 18 -90 18 -15 0 -47 6 -72 14 -25 8 -72 22 -105 31 -33 9 -72
23 -87 31 -14 8 -32 14 -39 14 -8 0 -54 20 -104 44 -49 24 -97 47 -105 50 -17
8 -36 19 -97 59 -24 15 -45 27 -48 27 -17 0 -213 160 -295 241 -113 111 -237
263 -295 361 -24 40 -70 127 -93 173 -13 28 -28 58 -33 67 -16 31 -66 177 -92
268 -26 90 -46 198 -57 310 -14 145 -14 4063 0 4215 12 117 32 230 56 306 8
26 14 54 14 63 0 8 6 30 14 48 8 18 22 53 31 78 32 85 102 232 136 285 10 17
22 37 26 45 12 26 136 194 172 235 100 110 262 263 311 291 16 10 30 22 30 26
0 4 5 8 11 8 6 0 28 13 48 28 20 16 43 32 51 35 8 4 29 16 45 27 17 11 37 22
45 26 8 3 22 9 30 14 34 20 142 68 210 95 25 9 60 23 78 31 18 8 40 14 48 14
9 0 37 6 63 14 66 21 184 44 276 54 121 13 6686 15 6810 1z"/>
<path d="M7575 6381 c-64 -8 -162 -37 -171 -52 -3 -5 -12 -9 -20 -9 -17 0
-106 -61 -157 -109 -45 -42 -127 -156 -127 -176 0 -8 -4 -16 -9 -19 -4 -3 -19
-36 -32 -73 l-24 -68 0 -765 0 -765 22 -62 c61 -168 175 -307 311 -376 17 -9
45 -24 61 -32 16 -8 37 -15 48 -15 10 0 36 -7 58 -15 24 -8 77 -14 135 -14 58
0 111 6 135 14 22 8 48 15 58 15 11 0 31 6 45 14 15 8 34 17 42 21 55 22 151
97 203 158 52 61 98 143 130 230 l22 62 0 765 c0 759 0 765 -22 825 -77 216
-216 355 -423 425 -63 21 -197 31 -285 21z"/>
</g>
</svg>
