<?xml version="1.0" standalone="no"?>
<!DOCTYPE svg PUBLIC "-//W3C//DTD SVG 20010904//EN"
 "http://www.w3.org/TR/2001/REC-SVG-20010904/DTD/svg10.dtd">
<svg version="1.0" xmlns="http://www.w3.org/2000/svg"
 width="1536.000000pt" height="1536.000000pt" viewBox="0 0 1536.000000 1536.000000"
 preserveAspectRatio="xMidYMid meet">
<g transform="translate(0.000000,1536.000000) scale(0.100000,-0.100000)"
fill="#000000" stroke="none">
<path d="M6405 14121 c-117 -9 -251 -36 -360 -73 -16 -5 -41 -12 -55 -15 -14
-3 -34 -12 -45 -19 -11 -8 -26 -14 -34 -14 -15 0 -197 -89 -246 -120 -16 -11
-37 -23 -45 -27 -8 -4 -60 -40 -115 -81 -173 -129 -343 -316 -457 -502 -47
-79 -123 -231 -138 -278 -5 -15 -20 -58 -34 -97 -14 -38 -26 -80 -26 -91 0
-12 -7 -38 -15 -57 -8 -20 -15 -51 -15 -69 0 -18 -7 -65 -15 -103 -29 -140
-17 -422 27 -605 6 -25 14 -63 18 -85 7 -38 12 -54 47 -150 28 -76 101 -229
133 -280 11 -16 24 -39 30 -50 24 -44 38 -67 57 -88 10 -12 32 -42 48 -67 43
-65 1862 -1885 1942 -1943 78 -55 210 -122 285 -143 105 -29 275 -45 373 -33
174 20 346 85 470 177 33 25 472 457 976 961 825 825 1006 1015 1043 1091 7
16 17 33 57 95 14 22 40 72 58 110 18 39 39 82 47 97 8 14 14 33 14 41 0 9 6
28 14 44 20 41 37 92 46 138 4 22 12 60 18 85 41 170 57 470 31 580 -6 25 -14
74 -19 110 -8 65 -23 129 -42 185 -5 17 -14 44 -18 60 -41 146 -156 363 -274
520 -79 105 -221 250 -302 310 -36 26 -70 52 -77 59 -17 16 -69 51 -87 59 -8
4 -28 16 -45 27 -45 29 -232 120 -247 120 -8 0 -19 5 -25 11 -6 6 -26 14 -44
19 -19 4 -47 13 -64 18 -282 95 -683 106 -961 26 -28 -7 -58 -14 -67 -14 -9 0
-31 -6 -49 -14 -18 -8 -53 -22 -78 -31 -97 -37 -165 -69 -258 -122 -41 -24
-76 -43 -78 -43 -3 0 -10 -5 -17 -10 -41 -35 -107 -80 -117 -80 -9 0 -70 41
-115 78 -5 4 -17 11 -25 15 -8 4 -42 23 -75 42 -61 36 -122 66 -185 93 -19 8
-48 21 -63 28 -16 8 -35 14 -44 14 -8 0 -29 6 -46 14 -18 8 -45 17 -62 19 -16
3 -48 10 -70 16 -158 40 -384 57 -580 42z m263 -862 c115 -13 217 -42 322 -93
81 -38 162 -101 289 -225 171 -166 239 -201 391 -201 153 0 225 37 391 200 93
92 209 190 223 190 3 0 27 13 53 28 26 16 57 31 68 35 11 3 47 15 80 27 33 12
109 28 170 36 335 42 649 -94 856 -371 54 -72 139 -244 139 -281 0 -8 7 -37
16 -63 12 -38 15 -82 11 -212 -4 -155 -13 -215 -42 -284 -7 -16 -21 -50 -31
-75 -10 -25 -22 -51 -27 -58 -5 -7 -19 -30 -31 -51 -11 -22 -39 -61 -60 -88
-56 -68 -1703 -1719 -1750 -1754 -81 -60 -1 -129 -1008 878 -499 500 -912 919
-918 933 -5 14 -19 39 -30 55 -11 17 -23 37 -26 45 -3 8 -12 29 -19 45 -66
151 -77 211 -72 390 5 188 16 237 90 395 62 132 197 281 330 364 121 75 241
118 377 134 108 13 103 13 208 1z"/>
<path d="M2705 11780 c-137 -7 -246 -22 -331 -46 -28 -8 -61 -14 -73 -14 -12
0 -32 -5 -44 -12 -12 -6 -38 -15 -57 -19 -33 -7 -54 -13 -145 -46 -91 -33
-223 -93 -300 -137 -22 -12 -56 -31 -75 -42 -213 -119 -478 -349 -644 -559
-67 -85 -164 -222 -179 -255 -4 -8 -16 -28 -26 -45 -28 -42 -105 -199 -131
-265 -12 -30 -27 -68 -34 -85 -17 -40 -37 -96 -42 -120 -3 -11 -11 -42 -19
-70 -26 -94 -43 -170 -62 -270 -17 -96 -18 -243 -18 -3300 0 -2673 2 -3210 14
-3260 7 -33 17 -82 21 -110 11 -78 52 -236 76 -293 8 -18 14 -39 14 -47 0 -8
7 -31 16 -52 9 -21 23 -51 30 -68 19 -45 113 -237 127 -260 7 -11 24 -39 40
-63 15 -24 27 -45 27 -47 0 -5 91 -137 100 -145 3 -3 31 -37 62 -77 104 -130
393 -403 427 -403 6 0 11 -4 11 -9 0 -5 21 -22 46 -38 26 -15 58 -36 73 -45
14 -10 35 -22 46 -28 11 -6 34 -19 50 -30 17 -11 37 -22 45 -26 8 -3 22 -9 30
-14 46 -27 228 -110 241 -110 6 0 23 -6 37 -14 36 -18 90 -36 133 -45 19 -4
42 -12 49 -16 8 -5 32 -12 55 -16 22 -3 60 -11 85 -17 25 -6 90 -19 145 -29
95 -17 347 -18 5155 -18 4778 0 5059 1 5130 17 41 10 86 18 99 18 13 0 49 7
80 16 31 8 81 22 111 30 30 9 69 20 85 25 17 6 39 13 50 16 11 3 34 11 50 18
17 7 50 21 75 31 40 15 203 93 278 133 38 20 197 125 240 158 146 114 312 274
407 394 33 40 62 76 65 79 9 8 100 140 100 145 0 2 12 23 28 47 45 71 50 79
100 183 66 135 125 283 142 355 4 19 13 49 18 65 16 46 34 124 42 180 4 28 14
77 21 110 12 50 14 588 14 3270 0 3025 -1 3214 -17 3278 -10 38 -18 80 -18 94
0 15 -7 51 -16 82 -8 31 -22 81 -30 111 -9 30 -20 69 -26 85 -5 17 -12 41 -15
55 -3 14 -12 34 -19 45 -8 11 -14 25 -14 32 0 21 -112 258 -151 318 -10 17
-22 37 -26 45 -34 71 -229 323 -326 420 -125 126 -162 159 -272 241 -126 95
-188 136 -280 184 -27 14 -57 30 -65 35 -13 8 -63 31 -185 85 -28 12 -64 26
-145 55 -19 6 -51 15 -71 19 -19 4 -42 12 -49 16 -8 5 -32 12 -55 16 -22 3
-60 11 -85 17 -181 44 -224 46 -825 47 l-580 0 -60 -23 c-113 -44 -203 -131
-255 -247 -31 -68 -33 -241 -5 -307 47 -109 137 -205 230 -247 63 -29 137 -33
680 -40 493 -6 568 -9 630 -25 74 -19 166 -47 225 -67 37 -13 221 -101 255
-122 59 -37 190 -141 259 -207 69 -66 210 -238 229 -280 4 -8 16 -28 27 -45
11 -16 23 -37 26 -45 3 -8 19 -42 34 -75 26 -56 37 -83 70 -175 6 -19 16 -56
20 -82 5 -27 12 -53 16 -59 4 -6 13 -71 20 -143 20 -197 20 -5987 0 -6192 -8
-78 -19 -151 -25 -162 -6 -11 -11 -31 -11 -44 0 -13 -12 -54 -26 -93 -14 -38
-29 -81 -34 -95 -4 -14 -18 -44 -29 -68 -12 -23 -26 -52 -31 -65 -6 -12 -19
-35 -30 -52 -11 -16 -23 -37 -27 -45 -32 -68 -196 -262 -280 -331 -36 -30 -72
-60 -79 -67 -15 -15 -104 -75 -125 -86 -8 -3 -27 -15 -44 -25 -72 -47 -207
-104 -315 -134 -252 -71 129 -66 -5220 -66 -4842 0 -5047 1 -5099 33 -6 4 -32
11 -59 16 -26 4 -63 14 -82 20 -92 33 -119 44 -175 70 -33 15 -67 31 -75 34
-8 3 -28 15 -45 26 -16 11 -37 23 -45 27 -72 34 -255 191 -347 298 -58 68
-122 155 -136 185 -4 8 -16 29 -26 45 -44 67 -102 202 -134 310 -70 229 -66
63 -66 3370 0 3294 -4 3128 66 3360 22 76 63 180 84 215 5 8 11 20 13 25 2 6
7 17 10 25 3 8 15 29 26 45 11 17 23 37 27 45 4 8 39 58 79 110 194 256 450
435 759 529 181 56 162 54 760 62 354 4 578 10 608 18 117 27 229 119 286 236
32 66 34 77 35 175 1 89 -3 113 -23 160 -50 116 -139 205 -251 251 -54 22 -63
22 -540 24 -267 1 -543 -1 -615 -5z"/>
<path d="M2500 9151 c-92 -35 -127 -58 -192 -124 -53 -55 -94 -148 -103 -233
-13 -132 25 -256 103 -338 20 -21 82 -72 137 -112 55 -41 116 -85 135 -100 19
-14 92 -67 162 -117 70 -51 164 -119 209 -152 46 -33 101 -72 124 -87 22 -16
63 -45 91 -65 161 -119 453 -332 485 -353 12 -8 85 -61 163 -117 78 -57 190
-138 249 -180 59 -43 114 -83 121 -90 7 -6 26 -20 43 -30 30 -19 172 -122 414
-300 77 -57 141 -103 144 -103 16 0 185 -137 185 -150 0 -13 -85 -82 -215
-174 -11 -8 -60 -44 -110 -80 -49 -36 -119 -86 -155 -110 -36 -24 -125 -89
-198 -143 -73 -54 -188 -137 -255 -186 -67 -48 -186 -133 -264 -190 -77 -56
-200 -145 -273 -197 -72 -52 -197 -142 -276 -200 -80 -58 -201 -145 -270 -195
-69 -49 -131 -95 -137 -100 -7 -6 -34 -26 -62 -45 -27 -18 -94 -67 -147 -107
-53 -40 -100 -73 -103 -73 -9 0 -123 -87 -163 -124 -181 -167 -187 -452 -13
-626 131 -131 350 -160 513 -67 12 6 51 32 85 57 35 25 120 86 189 135 124 88
351 253 548 397 55 40 113 81 129 91 17 10 36 24 43 30 7 7 62 47 121 90 59
42 181 130 270 195 89 64 218 158 287 207 69 50 191 138 270 198 80 59 148
107 151 107 3 0 59 40 123 88 64 49 122 91 128 93 6 2 74 50 150 107 250 185
386 282 395 282 9 0 97 -62 320 -227 77 -57 142 -103 145 -103 3 0 31 -19 62
-43 65 -48 175 -122 242 -160 117 -68 328 -163 405 -184 11 -3 34 -11 52 -19
17 -8 40 -14 52 -14 11 0 38 -6 58 -14 46 -16 154 -39 284 -60 130 -22 505
-22 638 -1 122 20 234 43 291 61 25 8 51 14 58 14 8 0 28 6 45 14 18 8 41 16
52 19 36 10 108 38 160 63 29 13 58 24 66 24 8 0 19 4 25 9 5 6 45 29 89 52
44 23 131 76 193 118 63 42 121 81 130 86 19 12 206 147 377 273 83 61 132 91
143 87 9 -3 59 -37 111 -76 215 -156 357 -260 376 -273 27 -20 153 -110 245
-176 41 -30 137 -99 213 -154 76 -56 185 -135 243 -176 58 -41 177 -128 265
-192 88 -65 162 -118 164 -118 3 0 60 -41 127 -91 68 -50 132 -97 143 -104 11
-8 75 -55 143 -105 67 -49 124 -90 127 -90 5 0 237 -171 270 -198 6 -5 24 -17
40 -28 17 -10 83 -57 147 -104 227 -166 265 -192 298 -205 8 -4 30 -13 48 -21
21 -9 68 -14 132 -14 94 0 135 9 190 41 8 5 26 14 38 19 44 19 129 117 162
187 31 64 33 75 33 178 0 96 -4 117 -26 165 -37 83 -98 153 -190 220 -45 33
-137 101 -205 150 -67 50 -126 90 -130 90 -5 0 -21 14 -37 30 -16 17 -32 30
-37 30 -4 0 -62 39 -127 88 -137 100 -366 266 -396 286 -11 8 -75 55 -143 105
-67 50 -124 91 -127 91 -2 0 -78 54 -167 120 -90 66 -208 152 -262 192 -55 40
-104 75 -110 77 -9 4 -193 138 -231 169 -5 4 -32 23 -60 42 -27 19 -112 79
-187 135 -75 55 -179 131 -232 170 -53 38 -96 76 -96 85 0 9 34 41 76 71 42
29 129 93 195 142 65 48 121 87 124 87 3 0 71 48 151 108 79 59 201 148 270
197 69 50 140 101 159 115 19 14 83 60 142 103 174 125 367 266 378 275 6 5
24 17 40 27 17 11 64 45 105 76 41 31 105 77 142 102 37 25 73 51 80 57 33 27
228 170 233 170 3 0 50 33 103 73 53 40 118 87 145 105 26 17 53 36 60 42 6 6
53 40 102 77 101 73 182 148 196 178 5 11 13 27 18 35 37 60 45 98 44 205 -1
112 -6 131 -58 223 -21 38 -86 100 -140 135 -73 48 -139 67 -225 67 -121 0
-175 -24 -375 -166 -27 -20 -59 -44 -71 -55 -11 -10 -23 -19 -27 -19 -4 0 -60
-39 -126 -87 -65 -49 -169 -124 -230 -168 -61 -44 -122 -88 -134 -99 -12 -10
-40 -30 -62 -44 -22 -14 -87 -60 -145 -103 -58 -43 -120 -88 -137 -101 -47
-33 -227 -163 -378 -273 -71 -52 -143 -103 -160 -115 -16 -12 -87 -62 -157
-113 -250 -182 -383 -278 -403 -291 -11 -8 -75 -55 -143 -105 -67 -50 -125
-91 -128 -91 -3 0 -49 -33 -102 -73 -53 -40 -110 -81 -127 -92 -16 -10 -36
-25 -44 -33 -8 -7 -26 -21 -40 -30 -14 -9 -70 -49 -123 -89 -53 -40 -99 -73
-102 -73 -3 0 -78 -53 -165 -117 -137 -102 -296 -217 -414 -301 -17 -13 -89
-65 -159 -115 -206 -150 -251 -182 -262 -187 -6 -3 -30 -18 -54 -33 -91 -59
-245 -127 -362 -160 -165 -46 -212 -52 -410 -52 -153 0 -212 4 -275 19 -117
26 -186 46 -218 62 -16 8 -35 14 -44 14 -8 0 -27 6 -41 14 -15 8 -47 24 -72
36 -49 23 -62 30 -128 73 -24 15 -45 27 -48 27 -3 0 -41 27 -84 60 -43 33 -81
60 -84 60 -3 0 -78 53 -165 118 -222 163 -317 232 -365 265 -47 32 -37 25
-211 152 -120 88 -301 218 -378 273 -17 13 -89 65 -159 115 -69 51 -192 139
-272 197 -80 58 -201 146 -268 196 -68 50 -128 93 -134 95 -6 2 -74 50 -150
107 -275 203 -384 282 -389 282 -3 0 -77 53 -164 118 -88 64 -202 147 -253
184 -51 37 -124 90 -163 118 -38 28 -112 81 -163 118 -166 119 -346 251 -376
274 -16 13 -34 25 -40 27 -6 2 -36 23 -66 46 -137 104 -215 135 -335 134 -50
0 -97 -7 -125 -18z"/>
</g>
</svg>
