<?xml version="1.0" standalone="no"?>
<!DOCTYPE svg PUBLIC "-//W3C//DTD SVG 20010904//EN"
 "http://www.w3.org/TR/2001/REC-SVG-20010904/DTD/svg10.dtd">
<svg version="1.0" xmlns="http://www.w3.org/2000/svg"
 width="1536.000000pt" height="1536.000000pt" viewBox="0 0 1536.000000 1536.000000"
 preserveAspectRatio="xMidYMid meet">
<g transform="translate(0.000000,1536.000000) scale(0.100000,-0.100000)"
fill="#000000" stroke="none">
<path d="M13285 14811 c-44 -4 -100 -13 -125 -20 -25 -7 -70 -19 -100 -27 -30
-8 -68 -20 -85 -26 -16 -5 -46 -14 -65 -18 -19 -4 -48 -13 -65 -18 -16 -6 -52
-17 -80 -25 -137 -39 -172 -50 -195 -59 -14 -6 -41 -14 -60 -19 -19 -4 -66
-17 -105 -29 -38 -12 -83 -25 -100 -30 -105 -32 -137 -42 -200 -60 -38 -11
-92 -27 -120 -36 -27 -8 -66 -19 -85 -23 -19 -5 -46 -13 -60 -18 -14 -6 -52
-18 -85 -27 -33 -10 -73 -22 -90 -28 -16 -5 -46 -14 -65 -18 -33 -8 -50 -13
-130 -40 -19 -7 -51 -15 -70 -19 -19 -4 -45 -13 -57 -19 -12 -7 -30 -12 -41
-12 -11 0 -33 -7 -48 -15 -16 -8 -39 -15 -51 -15 -12 0 -37 -6 -55 -14 -18 -7
-59 -21 -90 -30 -32 -9 -84 -23 -115 -32 -32 -9 -73 -23 -91 -30 -18 -8 -40
-14 -50 -14 -9 0 -34 -6 -57 -14 -22 -7 -67 -21 -100 -31 -33 -10 -78 -23
-100 -30 -38 -12 -98 -30 -210 -62 -27 -8 -63 -19 -80 -25 -16 -5 -46 -14 -65
-18 -19 -4 -50 -13 -67 -19 -18 -6 -48 -16 -65 -22 -18 -6 -49 -15 -68 -19
-19 -4 -51 -13 -70 -20 -80 -27 -97 -32 -130 -40 -33 -8 -50 -13 -130 -40 -19
-7 -51 -16 -70 -20 -19 -4 -51 -13 -70 -20 -80 -27 -97 -32 -130 -40 -19 -4
-48 -13 -65 -18 -16 -6 -57 -18 -90 -27 -33 -9 -78 -23 -100 -30 -22 -7 -67
-20 -100 -30 -33 -10 -76 -23 -95 -30 -19 -7 -55 -18 -80 -24 -58 -15 -97 -27
-135 -39 -16 -6 -57 -18 -90 -27 -33 -9 -73 -21 -90 -27 -16 -5 -43 -14 -60
-18 -16 -5 -61 -18 -100 -30 -38 -12 -86 -25 -105 -30 -19 -4 -48 -13 -65 -18
-16 -6 -57 -18 -90 -28 -33 -9 -71 -21 -85 -27 -14 -5 -41 -13 -60 -17 -33 -8
-49 -13 -130 -40 -19 -7 -51 -16 -70 -20 -19 -4 -48 -13 -65 -18 -16 -6 -57
-18 -90 -28 -33 -9 -71 -21 -85 -27 -14 -5 -41 -13 -60 -18 -19 -4 -66 -17
-105 -29 -38 -12 -83 -25 -100 -30 -28 -8 -50 -15 -127 -41 -18 -6 -49 -15
-68 -19 -19 -5 -66 -18 -105 -30 -38 -12 -83 -25 -100 -30 -16 -5 -61 -18
-100 -30 -38 -12 -86 -25 -105 -29 -19 -5 -46 -13 -60 -18 -14 -6 -52 -18 -85
-28 -138 -40 -161 -47 -190 -57 -16 -5 -46 -14 -65 -18 -19 -4 -50 -13 -67
-19 -18 -6 -48 -16 -65 -22 -18 -6 -49 -15 -68 -19 -33 -8 -50 -13 -130 -40
-19 -7 -51 -16 -70 -20 -19 -5 -59 -16 -87 -25 -29 -9 -74 -22 -100 -30 -51
-15 -87 -26 -143 -45 -19 -7 -51 -16 -70 -20 -19 -5 -57 -16 -85 -24 -27 -9
-81 -25 -120 -36 -81 -24 -143 -42 -218 -65 -28 -9 -68 -20 -87 -24 -19 -5
-46 -13 -60 -18 -14 -6 -52 -18 -85 -28 -138 -40 -161 -47 -190 -57 -16 -5
-46 -14 -65 -18 -19 -4 -50 -13 -67 -19 -18 -6 -48 -16 -65 -22 -18 -6 -49
-15 -68 -19 -19 -4 -50 -13 -67 -19 -18 -6 -48 -16 -65 -22 -18 -6 -49 -15
-68 -19 -39 -10 -119 -33 -165 -49 -16 -5 -57 -17 -90 -27 -33 -9 -78 -23
-100 -29 -22 -7 -67 -21 -100 -30 -33 -10 -78 -24 -100 -30 -22 -7 -67 -20
-100 -30 -33 -9 -78 -23 -100 -30 -22 -6 -67 -20 -100 -30 -33 -9 -78 -23
-100 -30 -22 -6 -67 -20 -100 -29 -33 -10 -73 -22 -90 -28 -16 -5 -46 -14 -65
-18 -33 -8 -50 -13 -130 -40 -19 -7 -51 -16 -70 -20 -19 -4 -50 -13 -67 -19
-18 -6 -48 -16 -65 -22 -18 -6 -49 -15 -68 -19 -33 -8 -50 -13 -130 -40 -19
-7 -51 -16 -70 -20 -19 -4 -50 -13 -67 -19 -18 -6 -48 -16 -65 -22 -18 -6 -49
-15 -68 -19 -37 -10 -116 -32 -165 -48 -73 -24 -112 -36 -145 -43 -126 -26
-366 -136 -461 -210 -20 -16 -42 -29 -47 -29 -29 0 -298 -290 -325 -350 -4 -8
-17 -31 -28 -50 -54 -91 -105 -208 -132 -300 -47 -167 -51 -201 -51 -405 1
-134 5 -215 14 -245 7 -25 16 -63 20 -85 7 -38 12 -54 47 -150 24 -66 52 -126
96 -206 57 -105 183 -257 278 -335 40 -32 79 -67 88 -76 8 -10 18 -18 22 -18
4 0 29 -15 55 -33 57 -38 185 -101 299 -147 44 -18 95 -39 113 -46 17 -8 48
-21 67 -29 19 -8 50 -21 68 -28 17 -8 52 -22 77 -32 25 -9 59 -23 75 -30 17
-7 82 -34 145 -60 63 -25 129 -52 145 -60 17 -7 50 -20 75 -30 43 -17 57 -23
143 -59 80 -34 104 -44 147 -61 25 -10 59 -23 75 -30 76 -32 112 -48 138 -61
16 -8 35 -14 42 -14 7 0 26 -6 42 -14 15 -8 45 -21 66 -30 20 -9 52 -22 70
-30 17 -7 52 -21 77 -31 25 -10 60 -24 78 -31 17 -8 47 -20 65 -27 17 -8 48
-21 67 -29 19 -9 71 -30 115 -48 44 -17 94 -38 110 -45 17 -7 66 -27 110 -45
44 -17 94 -37 110 -45 17 -7 50 -21 75 -30 25 -10 73 -31 108 -47 34 -15 67
-28 72 -28 5 0 38 -13 72 -28 35 -16 83 -37 108 -47 25 -9 59 -23 75 -30 17
-8 82 -34 145 -60 134 -54 175 -72 213 -91 16 -8 35 -14 42 -14 7 0 26 -6 42
-14 38 -18 82 -37 178 -76 44 -18 95 -39 113 -46 17 -8 48 -21 67 -29 19 -8
50 -21 68 -28 17 -8 52 -22 77 -32 45 -17 82 -32 143 -59 17 -7 68 -28 112
-46 77 -31 109 -44 178 -73 17 -8 52 -22 77 -32 42 -17 65 -26 142 -59 18 -7
69 -28 113 -46 44 -18 95 -39 113 -46 76 -33 99 -42 142 -59 165 -65 293 -151
336 -227 34 -61 84 -165 84 -175 0 -6 6 -24 14 -40 8 -15 21 -45 30 -65 9 -21
22 -53 30 -70 7 -18 21 -53 31 -78 10 -25 23 -58 30 -75 8 -16 28 -66 45 -110
18 -44 38 -93 45 -110 59 -137 71 -166 90 -215 10 -25 24 -61 33 -80 21 -50
37 -89 57 -140 10 -25 24 -60 31 -77 8 -18 21 -49 29 -68 8 -19 21 -50 29 -68
7 -17 28 -68 46 -112 17 -44 37 -93 45 -110 7 -16 20 -50 30 -75 10 -25 24
-60 31 -77 8 -18 21 -49 29 -68 8 -19 21 -50 28 -68 8 -17 22 -52 32 -77 17
-42 26 -65 59 -142 7 -18 28 -69 46 -113 18 -44 39 -95 46 -112 8 -18 20 -48
28 -65 7 -18 28 -69 46 -113 17 -44 38 -93 45 -110 7 -16 27 -66 45 -110 18
-44 39 -95 46 -113 8 -17 20 -47 28 -65 7 -17 28 -68 46 -112 18 -44 39 -95
46 -112 33 -78 42 -101 59 -143 17 -42 26 -65 59 -142 7 -18 28 -69 46 -113
31 -77 44 -109 73 -178 8 -17 22 -52 32 -77 17 -42 26 -65 59 -143 7 -17 28
-68 46 -112 18 -44 39 -95 46 -112 8 -18 20 -48 28 -65 7 -18 28 -69 46 -113
17 -44 38 -93 45 -110 7 -16 27 -66 45 -110 31 -77 44 -109 73 -178 8 -17 22
-52 32 -77 10 -25 24 -60 31 -77 8 -18 20 -48 27 -65 90 -218 219 -408 368
-539 87 -77 154 -129 165 -129 4 0 15 -6 23 -14 49 -43 296 -149 386 -166 22
-4 60 -13 85 -20 69 -21 470 -18 530 3 25 9 54 17 65 17 53 0 284 94 370 150
17 11 37 23 45 27 72 32 289 238 355 336 128 188 172 285 249 552 9 33 22 74
28 90 5 17 13 46 18 65 4 19 12 46 17 60 6 14 18 52 27 85 10 33 22 74 28 90
5 17 14 46 18 65 4 19 13 50 19 68 6 17 16 47 22 65 6 17 15 48 19 67 14 55
38 136 71 233 6 17 15 48 19 67 5 19 16 60 26 90 9 30 23 78 31 105 8 28 21
70 29 95 7 25 23 77 34 115 30 102 48 164 66 220 8 28 19 66 24 85 4 19 13 50
19 68 33 96 57 177 71 232 4 19 13 51 20 70 27 80 32 97 40 130 4 19 13 51 20
70 27 79 32 97 40 130 8 32 18 67 56 190 13 44 21 69 64 215 12 39 25 84 30
100 5 17 18 62 30 100 11 39 27 90 34 115 18 59 40 132 59 198 9 29 23 76 32
105 9 28 20 68 25 87 4 19 13 50 19 67 6 18 16 48 22 65 6 18 15 49 19 68 4
19 13 50 19 68 6 17 16 47 22 65 6 17 15 48 19 67 4 19 13 50 19 68 6 17 16
47 22 65 6 17 15 48 19 67 14 55 38 136 71 232 6 18 15 49 19 68 5 19 16 58
24 85 9 28 23 75 32 105 18 60 38 129 60 200 7 25 23 77 34 115 11 39 27 93
36 120 8 28 19 66 24 85 4 19 13 50 19 67 33 97 57 178 71 233 4 19 13 50 19
68 6 17 16 47 22 65 6 17 15 48 19 67 4 19 13 51 20 70 27 80 32 97 40 130 4
19 13 49 18 65 6 17 18 57 28 90 9 33 23 78 29 100 7 22 21 67 30 100 10 33
23 78 30 100 6 22 20 67 30 100 9 33 23 78 30 100 6 22 20 67 30 100 9 33 23
78 30 100 6 22 20 67 29 100 10 33 22 74 27 90 16 46 39 126 49 165 4 19 13
50 19 68 6 17 16 47 22 65 6 17 15 48 19 67 4 19 13 51 20 70 27 80 32 97 40
130 4 19 13 50 19 68 6 17 16 47 22 65 6 17 15 48 19 67 4 19 13 49 18 65 6
17 18 57 28 90 9 33 21 71 27 85 5 14 13 41 18 60 4 19 15 58 23 85 9 28 25
82 36 120 12 39 25 84 30 100 5 17 18 62 30 100 11 39 27 90 34 115 8 25 21
70 30 100 9 30 23 78 32 105 8 28 19 66 24 85 4 19 13 50 19 68 6 17 16 47 22
65 6 17 15 48 19 67 4 19 13 50 19 68 6 17 16 47 22 65 6 17 15 48 19 67 5 19
16 58 24 85 9 28 25 82 36 120 12 39 25 84 30 100 5 17 16 53 24 80 8 28 19
64 24 80 6 17 18 57 27 90 9 33 23 78 30 100 6 22 20 67 30 100 9 33 23 78 30
100 6 22 20 67 29 100 10 33 22 74 28 90 5 17 14 46 18 65 4 19 13 50 19 68 6
17 16 47 22 65 6 17 15 48 19 67 8 33 13 50 40 130 7 19 16 51 20 70 8 33 13
50 40 130 7 19 16 51 20 70 4 19 13 49 18 65 6 17 18 57 28 90 9 33 23 78 29
100 68 218 78 281 78 485 0 183 -9 261 -45 365 -5 17 -14 44 -18 60 -15 53
-41 120 -51 130 -5 5 -9 15 -9 22 0 28 -135 236 -204 315 -163 186 -344 312
-561 391 -96 34 -112 40 -155 48 -25 4 -60 12 -78 18 -45 13 -307 21 -407 12z
m249 -862 c56 -10 109 -28 146 -50 8 -5 26 -14 39 -19 50 -22 148 -134 183
-210 62 -134 66 -264 13 -437 -9 -29 -23 -75 -31 -103 -34 -114 -44 -148 -64
-215 -12 -38 -25 -83 -30 -100 -5 -16 -18 -61 -30 -100 -55 -187 -73 -246 -94
-315 -38 -123 -48 -158 -56 -190 -4 -19 -13 -50 -19 -67 -6 -18 -16 -48 -22
-65 -6 -18 -15 -49 -19 -68 -4 -19 -13 -51 -20 -70 -27 -80 -32 -97 -40 -130
-4 -19 -13 -50 -19 -67 -6 -18 -16 -48 -22 -65 -6 -18 -15 -49 -19 -68 -4 -19
-13 -50 -19 -67 -6 -18 -16 -48 -22 -65 -6 -18 -15 -49 -19 -68 -5 -19 -16
-60 -26 -90 -9 -30 -23 -80 -31 -110 -8 -30 -19 -59 -24 -64 -5 -6 -9 -19 -9
-30 0 -11 -6 -38 -14 -61 -8 -22 -22 -67 -31 -100 -10 -33 -23 -78 -30 -100
-6 -22 -20 -67 -30 -100 -9 -33 -23 -78 -30 -100 -6 -22 -20 -67 -29 -100 -10
-33 -22 -73 -28 -90 -5 -16 -14 -46 -18 -65 -4 -19 -13 -50 -19 -67 -6 -18
-16 -48 -22 -65 -6 -18 -15 -49 -19 -68 -4 -19 -13 -50 -19 -67 -6 -18 -16
-48 -22 -65 -6 -18 -15 -49 -19 -68 -4 -19 -13 -50 -19 -67 -6 -18 -16 -48
-22 -65 -6 -18 -15 -49 -19 -68 -4 -19 -13 -48 -18 -65 -6 -16 -18 -57 -28
-90 -9 -33 -21 -71 -27 -85 -5 -14 -13 -41 -17 -60 -5 -19 -13 -48 -18 -65 -6
-16 -18 -57 -27 -90 -9 -33 -23 -78 -30 -100 -12 -39 -33 -112 -62 -210 -8
-27 -19 -63 -24 -80 -18 -53 -40 -129 -48 -165 -5 -19 -13 -46 -18 -60 -6 -14
-18 -52 -27 -85 -10 -33 -22 -73 -28 -90 -5 -16 -14 -46 -18 -65 -14 -55 -38
-136 -71 -232 -6 -18 -15 -49 -19 -68 -10 -37 -32 -116 -49 -165 -9 -29 -18
-58 -56 -190 -10 -33 -23 -78 -30 -100 -7 -22 -20 -67 -30 -100 -10 -33 -23
-78 -30 -100 -7 -22 -20 -67 -30 -100 -9 -33 -21 -73 -27 -90 -5 -16 -14 -46
-18 -65 -4 -19 -13 -50 -19 -67 -6 -18 -16 -48 -22 -65 -6 -18 -15 -49 -19
-68 -4 -19 -13 -51 -20 -70 -27 -80 -32 -97 -40 -130 -4 -19 -13 -50 -19 -67
-6 -18 -16 -48 -22 -65 -6 -18 -15 -49 -19 -68 -14 -55 -38 -136 -71 -232 -6
-18 -15 -49 -19 -68 -4 -19 -13 -48 -18 -65 -6 -16 -18 -57 -28 -90 -9 -33
-22 -78 -29 -100 -7 -22 -20 -67 -30 -100 -10 -33 -24 -78 -30 -100 -7 -22
-20 -67 -30 -100 -9 -33 -23 -78 -30 -100 -6 -22 -20 -67 -30 -100 -9 -33 -23
-78 -30 -100 -6 -22 -20 -67 -29 -100 -10 -33 -22 -73 -28 -90 -5 -16 -14 -46
-18 -65 -4 -19 -13 -50 -19 -67 -6 -18 -16 -48 -22 -65 -6 -18 -15 -49 -19
-68 -4 -19 -13 -50 -19 -67 -6 -18 -16 -48 -22 -65 -6 -18 -15 -49 -19 -68 -4
-19 -13 -50 -19 -67 -6 -18 -16 -48 -22 -65 -6 -18 -15 -49 -19 -68 -4 -19
-13 -48 -18 -65 -6 -16 -18 -57 -28 -90 -9 -33 -22 -78 -29 -100 -6 -22 -20
-67 -30 -100 -9 -33 -23 -78 -30 -100 -7 -22 -20 -67 -30 -100 -10 -33 -23
-78 -30 -100 -6 -22 -20 -67 -29 -100 -10 -33 -22 -73 -27 -90 -6 -16 -17 -51
-24 -78 -8 -26 -21 -71 -30 -100 -9 -28 -20 -68 -25 -87 -4 -19 -13 -51 -20
-70 -27 -80 -32 -97 -40 -130 -4 -19 -13 -50 -19 -67 -6 -18 -16 -48 -22 -65
-6 -18 -15 -49 -19 -68 -4 -19 -13 -51 -20 -70 -27 -79 -32 -97 -40 -130 -5
-19 -16 -57 -24 -85 -9 -27 -25 -81 -36 -120 -12 -38 -25 -83 -30 -100 -5 -16
-18 -61 -30 -100 -11 -38 -27 -92 -36 -120 -8 -27 -19 -66 -24 -85 -4 -19 -13
-50 -19 -67 -36 -108 -59 -184 -70 -236 -5 -21 -14 -44 -20 -50 -6 -6 -11 -19
-11 -29 0 -48 -156 -238 -195 -238 -6 0 -16 -5 -23 -12 -25 -25 -184 -68 -252
-68 -68 0 -227 43 -252 68 -7 7 -17 12 -24 12 -19 0 -111 92 -143 142 -16 26
-46 87 -67 135 -20 48 -42 103 -50 120 -30 70 -42 100 -59 143 -17 42 -26 65
-59 142 -7 18 -28 69 -46 113 -18 44 -39 95 -46 112 -33 78 -42 101 -59 143
-10 25 -24 60 -32 77 -29 69 -42 101 -73 178 -18 44 -39 95 -46 113 -33 77
-42 100 -59 142 -17 43 -23 57 -59 143 -34 80 -44 104 -61 147 -10 25 -24 60
-31 77 -8 18 -20 48 -28 65 -7 18 -21 53 -31 78 -10 25 -24 60 -32 77 -7 18
-20 49 -28 68 -8 19 -21 50 -29 68 -7 17 -21 52 -31 77 -10 25 -24 60 -31 77
-8 18 -21 49 -29 68 -8 19 -21 50 -28 68 -8 17 -22 52 -32 77 -17 42 -26 65
-59 143 -7 17 -28 68 -46 112 -18 44 -38 94 -45 110 -7 17 -28 66 -45 110 -18
44 -39 95 -46 112 -27 61 -42 98 -59 143 -17 43 -22 56 -59 143 -34 80 -44
104 -61 147 -17 43 -27 67 -61 148 -36 85 -42 99 -59 142 -17 42 -26 65 -59
143 -7 17 -28 68 -46 112 -18 44 -38 94 -45 110 -7 17 -28 66 -45 110 -18 44
-39 95 -46 113 -8 17 -20 47 -28 65 -7 17 -28 68 -46 112 -36 90 -51 125 -72
175 -9 19 -23 55 -33 80 -39 100 -85 199 -96 206 -5 3 -9 9 -9 13 0 5 524 532
1164 1172 l1163 1164 37 80 c37 78 38 80 34 189 -3 100 -6 117 -35 176 -36 74
-131 180 -161 180 -4 0 -13 5 -19 11 -28 28 -118 49 -208 49 -98 0 -160 -17
-237 -67 -23 -14 -561 -545 -1196 -1179 -635 -635 -1158 -1154 -1162 -1154 -5
0 -11 4 -14 9 -6 8 -42 26 -136 67 -19 9 -48 22 -63 30 -16 8 -33 14 -39 14
-6 0 -40 14 -75 30 -34 17 -68 30 -74 30 -6 0 -23 6 -37 13 -15 8 -42 21 -60
30 -19 9 -40 17 -47 17 -7 0 -26 6 -42 14 -39 19 -81 37 -213 91 -137 55 -176
72 -213 91 -16 8 -35 14 -42 14 -7 0 -26 6 -42 14 -37 19 -81 38 -178 76 -44
18 -95 39 -112 46 -18 8 -50 21 -70 30 -86 36 -100 42 -143 59 -25 10 -60 24
-77 31 -18 8 -50 21 -70 30 -21 9 -51 22 -66 30 -16 8 -35 14 -42 14 -7 0 -26
6 -42 14 -38 18 -82 37 -178 76 -44 18 -95 39 -112 46 -18 8 -48 20 -65 28
-18 7 -69 28 -113 46 -96 39 -140 58 -178 76 -16 8 -35 14 -42 14 -7 0 -26 6
-42 14 -15 8 -45 21 -65 30 -21 9 -53 22 -70 30 -18 7 -69 28 -113 46 -96 39
-140 58 -178 76 -16 8 -35 14 -42 14 -7 0 -26 6 -42 14 -15 8 -45 21 -65 30
-21 9 -53 22 -70 30 -18 7 -53 21 -78 31 -25 10 -60 24 -77 32 -18 7 -49 20
-68 28 -87 37 -112 48 -138 61 -16 8 -35 14 -42 14 -7 0 -26 6 -42 14 -15 8
-46 22 -68 31 -22 10 -53 24 -68 31 -16 8 -35 14 -42 14 -7 0 -26 6 -42 14
-15 7 -46 21 -68 31 -22 9 -53 23 -68 31 -16 8 -35 14 -42 14 -7 0 -26 6 -42
14 -15 8 -45 21 -65 30 -21 9 -53 22 -70 30 -18 7 -69 28 -113 46 -44 18 -95
39 -113 46 -17 8 -49 21 -70 30 -20 9 -50 22 -65 30 -16 8 -35 14 -42 14 -7 0
-40 14 -73 30 -34 17 -66 30 -72 30 -7 0 -24 6 -38 14 -15 8 -51 24 -80 35
-125 51 -209 128 -264 243 -116 241 -32 538 187 664 55 32 101 51 155 64 68
17 140 39 152 46 6 4 28 11 47 15 20 4 50 12 66 17 17 6 53 17 80 25 112 32
172 50 210 62 22 7 67 20 100 30 33 10 78 23 100 30 22 7 67 20 100 30 33 9
74 21 90 27 17 5 46 14 65 18 33 8 50 13 130 40 19 7 51 16 70 20 19 4 50 13
68 19 17 6 47 16 65 22 17 6 48 15 67 19 19 4 49 13 65 18 17 6 57 18 90 28
33 9 71 21 85 27 14 5 41 13 60 17 19 5 51 13 70 20 80 27 97 32 130 40 19 4
49 13 65 18 17 6 57 18 90 27 33 10 78 23 100 30 22 7 67 21 100 30 33 10 71
22 85 28 14 5 41 13 60 18 62 14 124 31 160 44 19 7 62 20 95 30 33 9 78 23
100 31 23 8 48 14 57 14 10 0 32 6 50 14 18 7 60 21 93 30 33 10 74 22 90 28
17 5 46 14 65 18 19 4 50 13 68 19 17 6 47 16 65 22 17 6 48 15 67 19 19 4 51
13 70 20 80 27 97 32 130 40 19 4 49 13 65 18 17 6 57 18 90 27 33 10 78 23
100 30 39 12 73 22 200 60 33 10 78 23 100 30 22 7 67 20 100 29 33 10 74 22
90 28 17 5 46 14 65 18 55 14 136 38 233 71 17 6 48 15 67 19 19 4 51 13 70
20 80 27 97 32 130 40 19 4 50 13 68 19 17 6 47 16 65 22 17 6 48 15 67 19 33
8 50 13 130 40 19 7 51 16 70 20 19 4 49 13 65 18 17 6 57 18 90 27 33 9 78
23 100 30 22 7 67 20 100 30 33 10 78 24 100 30 22 7 67 20 100 30 33 9 78 23
100 31 23 8 48 14 57 14 10 0 32 6 50 14 18 7 60 21 93 30 33 10 74 22 90 28
17 5 46 14 65 18 33 8 50 13 130 40 19 7 51 16 70 20 19 4 49 13 65 18 17 6
57 18 90 28 33 9 71 21 85 27 14 5 41 13 60 17 33 8 49 13 130 40 19 7 51 16
70 20 19 4 49 13 65 18 17 6 57 18 90 27 33 9 78 23 100 30 22 6 67 20 100 30
33 9 78 23 100 30 39 12 112 33 210 62 28 8 64 19 80 25 17 5 46 14 65 18 19
4 51 13 70 20 85 29 175 56 230 70 19 4 49 13 65 18 79 27 104 34 150 48 28 8
66 19 85 24 19 4 50 13 68 19 17 6 47 16 65 22 17 6 48 15 67 19 19 4 50 13
68 19 17 6 47 16 65 22 17 6 48 15 67 19 39 10 119 33 165 49 17 5 57 17 90
27 33 9 71 21 85 27 14 5 41 13 60 18 19 4 67 17 105 29 39 12 86 25 105 29
19 5 46 13 60 18 14 6 52 18 85 28 33 10 78 23 100 30 22 7 67 20 100 29 33
10 74 22 90 28 17 5 46 14 65 18 19 4 50 13 68 19 96 33 177 57 232 71 19 4
51 13 70 20 80 27 97 32 130 40 19 4 49 13 65 18 17 6 57 18 90 27 80 23 132
40 175 55 19 6 51 16 70 20 19 4 49 13 65 18 17 6 53 17 80 25 82 23 167 49
210 62 199 63 266 73 369 54z"/>
<path d="M2200 7381 c-25 -10 -63 -26 -85 -35 -29 -13 -246 -224 -781 -759
-704 -704 -743 -746 -774 -812 -31 -66 -33 -76 -33 -180 0 -107 1 -113 36
-182 43 -86 57 -103 127 -157 65 -50 113 -70 198 -86 111 -20 247 18 338 95
42 36 1411 1407 1432 1435 33 42 50 70 58 90 3 8 12 30 20 48 9 21 14 68 14
132 0 94 -9 135 -41 190 -5 8 -13 25 -19 38 -13 31 -113 127 -153 147 -113 57
-246 71 -337 36z"/>
<path d="M4565 5066 c-141 -26 -62 47 -1516 -1406 l-1337 -1336 -37 -80 c-35
-75 -37 -84 -37 -179 0 -111 17 -170 73 -252 41 -59 130 -127 201 -154 104
-39 264 -29 348 22 8 5 26 14 39 19 13 6 625 612 1360 1348 1466 1467 1385
1379 1411 1530 27 159 -38 313 -175 417 -54 41 -87 55 -170 71 -79 16 -78 16
-160 0z"/>
<path d="M6827 2731 c-26 -10 -53 -23 -59 -29 -7 -7 -19 -12 -27 -12 -17 0
-1485 -1462 -1506 -1500 -35 -64 -48 -100 -61 -167 -19 -106 -1 -199 62 -315
22 -41 109 -112 178 -146 96 -47 239 -51 346 -10 20 7 58 30 85 50 28 20 372
360 766 755 551 552 721 728 736 763 72 161 72 256 0 410 -21 46 -129 160
-151 160 -7 0 -17 5 -23 11 -47 47 -250 65 -346 30z"/>
</g>
</svg>
