<?xml version="1.0" standalone="no"?>
<!DOCTYPE svg PUBLIC "-//W3C//DTD SVG 20010904//EN"
 "http://www.w3.org/TR/2001/REC-SVG-20010904/DTD/svg10.dtd">
<svg version="1.0" xmlns="http://www.w3.org/2000/svg"
 width="1536.000000pt" height="1536.000000pt" viewBox="0 0 1536.000000 1536.000000"
 preserveAspectRatio="xMidYMid meet">
<g transform="translate(0.000000,1536.000000) scale(0.100000,-0.100000)"
fill="#000000" stroke="none">
<path d="M7420 14814 c-146 -5 -363 -34 -560 -74 -30 -6 -75 -15 -100 -19 -59
-11 -137 -31 -180 -46 -19 -7 -55 -18 -80 -24 -84 -22 -101 -27 -210 -66 -19
-7 -68 -27 -109 -44 -40 -17 -77 -31 -82 -31 -17 0 -369 -170 -434 -210 -16
-10 -51 -30 -77 -44 -26 -14 -74 -43 -105 -63 -32 -21 -66 -42 -75 -48 -9 -5
-41 -27 -70 -47 -29 -21 -74 -52 -99 -70 -51 -36 -88 -66 -223 -178 -222 -185
-449 -421 -623 -650 -76 -100 -222 -310 -236 -341 -4 -8 -16 -27 -26 -44 -35
-54 -126 -223 -176 -325 -35 -73 -48 -101 -81 -177 -9 -21 -23 -51 -30 -66 -8
-16 -14 -35 -14 -42 0 -7 -6 -26 -14 -42 -18 -36 -61 -152 -76 -208 -5 -16
-13 -43 -18 -60 -10 -28 -22 -70 -53 -185 -7 -25 -16 -63 -20 -85 -4 -22 -12
-60 -18 -85 -42 -188 -57 -310 -76 -590 -22 -339 -8 -611 51 -970 15 -88 22
-121 54 -255 7 -27 16 -66 21 -85 4 -19 15 -60 25 -90 9 -30 22 -75 29 -100
21 -71 36 -113 51 -143 8 -16 14 -35 14 -42 0 -8 7 -31 16 -52 17 -38 32 -74
58 -135 44 -103 179 -368 235 -463 262 -440 549 -775 966 -1124 63 -53 169
-132 237 -177 65 -44 69 -48 52 -61 -10 -7 -37 -18 -59 -24 -22 -6 -56 -17
-75 -24 -82 -29 -107 -37 -135 -44 -17 -4 -39 -13 -50 -18 -11 -6 -40 -19 -65
-28 -46 -17 -82 -32 -145 -60 -19 -8 -50 -21 -67 -29 -175 -76 -454 -229 -633
-346 -115 -75 -362 -256 -396 -289 -9 -9 -40 -36 -69 -61 -175 -147 -341 -313
-502 -500 -26 -30 -57 -66 -69 -80 -54 -62 -235 -310 -284 -388 -5 -9 -29 -45
-52 -80 -24 -35 -43 -65 -43 -67 0 -3 -69 -124 -99 -175 -12 -20 -139 -276
-157 -317 -8 -18 -22 -50 -31 -70 -9 -21 -20 -47 -26 -57 -5 -11 -13 -31 -17
-45 -5 -14 -18 -51 -30 -81 -47 -122 -52 -136 -60 -170 -4 -19 -14 -51 -20
-70 -7 -19 -18 -51 -25 -70 -14 -38 -33 -111 -41 -150 -3 -14 -11 -47 -19 -75
-45 -160 -95 -478 -116 -735 -17 -212 -24 -855 -10 -990 25 -246 36 -290 112
-475 18 -44 38 -87 46 -96 7 -8 13 -20 13 -26 0 -5 13 -29 30 -51 16 -23 30
-44 30 -48 0 -12 94 -126 153 -186 73 -74 126 -118 221 -182 66 -45 243 -136
265 -136 6 0 25 -6 43 -14 63 -27 292 -76 493 -105 51 -8 127 -22 247 -47 37
-8 81 -14 99 -14 17 0 68 -7 113 -15 117 -21 254 -42 386 -60 433 -59 689 -90
870 -105 58 -5 129 -14 159 -19 29 -6 83 -11 120 -11 36 0 129 -6 206 -14 160
-17 516 -43 685 -51 63 -2 189 -10 280 -16 229 -16 1837 -16 2065 0 94 7 251
16 350 21 202 9 426 25 590 41 61 6 164 15 230 19 66 5 147 14 180 19 33 6 83
11 110 11 48 0 165 13 395 46 58 8 120 14 139 14 19 0 73 7 120 15 47 8 140
21 206 30 66 9 161 22 210 30 50 8 137 22 195 30 160 25 278 45 355 61 39 8
79 14 90 14 11 0 52 6 90 14 39 8 108 22 155 31 47 9 108 23 136 31 28 8 59
14 70 14 10 0 28 7 38 15 11 8 27 15 36 15 9 0 32 8 53 19 20 10 54 26 74 35
40 18 51 24 123 70 123 79 256 201 344 314 25 33 46 63 46 66 0 3 13 24 29 48
53 80 133 258 150 338 5 19 13 53 19 75 30 111 37 228 37 620 0 486 -19 772
-67 1025 -6 30 -14 78 -18 105 -9 62 -27 145 -45 210 -8 28 -16 61 -19 75 -8
39 -27 112 -41 150 -7 19 -18 51 -25 70 -6 19 -16 51 -20 70 -4 19 -18 60 -30
90 -12 30 -25 66 -30 80 -8 27 -25 69 -74 182 -33 77 -134 290 -156 328 -5 8
-11 22 -14 30 -4 8 -15 29 -25 45 -11 17 -32 53 -47 80 -15 28 -32 59 -38 70
-47 86 -260 390 -335 481 -14 17 -39 48 -56 69 -16 21 -35 43 -41 49 -5 6 -44
49 -85 96 -133 152 -279 294 -468 455 -13 11 -29 25 -35 31 -24 23 -305 234
-311 234 -4 0 -24 12 -44 28 -20 15 -45 33 -56 39 -284 174 -438 258 -622 339
-93 41 -162 70 -213 89 -25 10 -54 21 -65 26 -32 14 -107 40 -140 48 -16 5
-41 13 -55 19 -14 5 -43 15 -65 21 -22 6 -49 17 -59 24 -18 13 -16 15 20 38
22 13 44 27 49 31 6 5 51 39 100 76 50 37 103 78 120 92 16 14 63 54 104 89
118 100 294 275 398 396 137 158 136 157 160 193 13 18 32 43 44 55 25 27 213
309 264 397 98 168 281 555 305 645 5 17 18 55 30 85 12 30 27 75 35 100 7 25
20 70 29 100 10 30 21 71 25 90 5 19 14 58 21 85 32 134 39 167 54 255 58 351
73 638 51 970 -15 242 -28 349 -51 447 -7 34 -14 74 -14 89 0 15 -6 50 -14 78
-15 53 -33 125 -46 186 -5 19 -13 49 -18 65 -6 17 -18 57 -27 90 -9 33 -23 75
-31 93 -8 18 -14 39 -14 47 0 14 -20 66 -46 118 -8 16 -14 35 -14 42 0 7 -6
26 -14 42 -7 15 -20 44 -29 63 -8 19 -27 61 -41 92 -14 31 -31 67 -36 80 -5
13 -15 32 -22 43 -15 26 -23 41 -49 95 -20 39 -91 166 -118 210 -66 106 -89
141 -113 171 -15 20 -28 40 -28 43 0 7 -162 224 -199 266 -12 14 -45 52 -74
85 -182 211 -441 452 -652 608 -27 20 -54 40 -60 45 -10 7 -102 71 -149 102
-13 8 -74 46 -137 83 -63 37 -121 72 -129 77 -76 48 -390 192 -535 247 -22 8
-55 21 -73 29 -18 8 -39 14 -47 14 -8 0 -29 6 -47 14 -18 8 -60 22 -93 31 -33
9 -73 21 -90 27 -16 6 -48 14 -70 18 -77 17 -141 32 -189 46 -26 8 -60 14 -75
14 -14 0 -57 6 -96 14 -192 40 -593 62 -925 50z m460 -864 c207 -14 416 -46
556 -86 28 -8 61 -14 73 -14 12 0 32 -5 44 -12 12 -6 38 -15 57 -19 19 -4 51
-13 70 -19 94 -34 117 -43 143 -56 16 -8 35 -14 42 -14 7 0 26 -6 42 -14 15
-7 44 -20 63 -29 38 -16 236 -113 260 -127 8 -5 44 -25 80 -46 120 -69 372
-242 400 -274 3 -3 30 -25 60 -50 229 -185 532 -538 695 -812 59 -98 161 -300
201 -397 20 -47 40 -94 45 -104 13 -25 69 -185 79 -227 4 -19 13 -48 18 -65
42 -120 94 -405 113 -611 37 -418 -17 -893 -143 -1269 -5 -16 -14 -43 -18 -60
-15 -53 -41 -120 -51 -130 -5 -5 -9 -16 -9 -24 0 -8 -9 -33 -19 -55 -11 -23
-31 -68 -46 -101 -14 -33 -30 -67 -35 -75 -5 -8 -27 -51 -50 -95 -22 -44 -50
-93 -60 -110 -11 -16 -24 -39 -30 -50 -44 -83 -231 -342 -314 -435 -130 -145
-366 -367 -492 -461 -140 -106 -275 -199 -287 -199 -3 0 -25 -12 -49 -27 -24
-16 -52 -34 -63 -40 -32 -20 -276 -138 -325 -158 -25 -9 -58 -23 -75 -30 -78
-34 -219 -80 -315 -105 -19 -5 -55 -14 -80 -20 -25 -7 -68 -18 -96 -26 -28 -8
-62 -14 -75 -14 -13 0 -55 -6 -94 -14 -118 -25 -362 -46 -529 -46 -201 0 -505
33 -666 72 -25 6 -63 14 -85 18 -22 3 -56 11 -75 18 -19 6 -62 18 -95 28 -33
9 -74 23 -92 31 -17 7 -39 13 -50 13 -10 0 -27 7 -37 15 -11 8 -28 15 -37 15
-10 0 -30 6 -46 14 -15 8 -53 24 -83 36 -63 25 -280 132 -325 161 -16 10 -39
23 -50 28 -11 5 -37 21 -58 35 -21 14 -40 26 -42 26 -7 0 -194 129 -205 140
-3 3 -34 28 -70 55 -36 27 -78 61 -94 75 -43 37 -315 308 -362 360 -68 76
-265 343 -287 390 -4 8 -16 29 -27 45 -11 17 -24 39 -30 50 -6 11 -26 47 -45
80 -37 66 -62 116 -107 215 -16 36 -36 78 -44 93 -8 16 -14 35 -14 42 0 7 -6
26 -14 42 -13 26 -22 49 -56 143 -6 19 -16 51 -20 70 -4 19 -13 49 -18 65 -69
197 -126 611 -125 898 1 291 57 687 125 882 5 17 14 46 18 65 4 19 14 51 20
70 28 77 42 116 55 145 7 17 20 50 30 75 22 55 73 170 86 190 5 8 12 22 15 30
3 8 10 22 15 30 5 8 15 29 23 45 8 17 29 53 45 80 17 28 34 57 38 65 4 8 26
43 50 78 24 35 43 65 43 68 0 7 146 201 204 269 78 94 333 346 415 411 85 68
199 154 223 169 9 6 49 32 90 59 40 28 91 60 113 72 22 11 56 30 75 42 74 43
252 128 405 192 17 7 44 16 60 20 17 5 55 18 85 30 30 12 71 25 90 29 19 4 51
13 70 19 158 50 425 96 630 110 185 13 278 13 450 2z m1190 -7401 c36 -5 103
-14 150 -19 47 -5 101 -14 120 -19 19 -6 48 -11 64 -11 16 0 52 -6 80 -14 53
-15 125 -33 186 -46 19 -5 50 -13 68 -19 79 -27 99 -33 127 -41 38 -11 92 -29
130 -45 17 -7 50 -20 75 -30 55 -21 86 -34 170 -73 36 -16 72 -33 80 -36 8 -3
23 -10 33 -16 30 -17 51 -28 97 -51 78 -39 380 -226 400 -248 3 -4 23 -19 46
-34 22 -15 49 -35 60 -45 10 -9 39 -33 64 -52 142 -109 393 -354 531 -520 54
-64 229 -297 229 -304 0 -2 19 -33 42 -68 49 -72 53 -79 89 -145 15 -26 36
-64 48 -83 11 -19 23 -42 27 -50 3 -8 9 -22 14 -30 37 -63 144 -306 185 -420
28 -78 37 -106 45 -135 5 -16 13 -43 18 -60 39 -113 89 -331 116 -505 37 -235
46 -401 46 -811 0 -447 -1 -451 -63 -578 -34 -67 -128 -165 -189 -195 -51 -26
-140 -56 -166 -56 -13 0 -51 -6 -85 -14 -82 -20 -179 -38 -247 -46 -30 -4 -80
-12 -110 -18 -30 -6 -100 -18 -155 -27 -55 -9 -136 -22 -180 -31 -44 -8 -93
-14 -109 -14 -15 0 -65 -7 -110 -15 -44 -8 -137 -22 -206 -30 -69 -9 -164 -22
-211 -30 -47 -8 -103 -15 -125 -15 -21 0 -91 -7 -154 -15 -193 -24 -300 -36
-425 -45 -66 -5 -151 -14 -190 -19 -38 -6 -104 -11 -145 -11 -41 0 -109 -5
-150 -11 -41 -5 -160 -14 -265 -19 -104 -5 -264 -13 -355 -19 -462 -30 -1738
-30 -2200 0 -91 6 -250 14 -355 19 -104 5 -224 14 -265 19 -41 6 -109 11 -150
11 -41 0 -106 5 -145 11 -38 5 -124 14 -190 19 -66 5 -163 14 -215 20 -52 6
-153 17 -225 26 -71 8 -179 21 -240 29 -60 8 -166 21 -235 30 -162 21 -306 42
-400 60 -42 8 -89 15 -105 15 -27 0 -103 12 -255 42 -30 5 -77 14 -105 18 -70
10 -169 29 -242 46 -34 8 -74 14 -90 14 -28 1 -94 22 -165 53 -61 28 -159 127
-195 198 -63 127 -63 130 -63 588 0 480 14 669 76 971 24 118 69 296 89 350
28 79 37 106 45 135 5 17 18 55 30 85 12 30 25 67 30 81 4 14 12 34 18 45 6
10 24 48 40 84 51 112 73 156 102 207 5 10 21 41 35 68 15 28 35 64 45 80 11
17 23 37 27 45 4 8 26 43 50 77 24 35 43 66 43 69 0 7 172 237 229 304 134
161 394 416 531 520 25 19 50 40 55 46 6 6 33 26 60 45 28 18 55 37 60 41 31
25 102 75 115 81 8 4 27 15 41 25 23 14 96 59 161 97 9 6 53 29 97 52 44 23
88 46 98 52 10 5 45 22 78 36 33 15 78 35 100 45 22 10 60 26 85 35 25 9 57
23 72 31 14 8 35 14 46 14 11 0 33 6 49 14 36 18 88 36 133 46 19 4 49 13 65
18 17 6 57 17 90 25 33 8 80 20 105 26 25 7 76 16 113 21 38 5 73 12 78 16 5
3 51 10 102 15 51 6 115 14 142 18 76 12 2727 13 2805 0z"/>
</g>
</svg>
