<?xml version="1.0" standalone="no"?>
<!DOCTYPE svg PUBLIC "-//W3C//DTD SVG 20010904//EN"
 "http://www.w3.org/TR/2001/REC-SVG-20010904/DTD/svg10.dtd">
<svg version="1.0" xmlns="http://www.w3.org/2000/svg"
 width="1536.000000pt" height="1536.000000pt" viewBox="0 0 1536.000000 1536.000000"
 preserveAspectRatio="xMidYMid meet">
<g transform="translate(0.000000,1536.000000) scale(0.100000,-0.100000)"
fill="#000000" stroke="none">
<path d="M10870 14810 c-178 -10 -442 -60 -548 -106 -18 -8 -39 -14 -47 -14
-8 0 -31 -7 -52 -16 -21 -9 -53 -22 -71 -30 -62 -26 -107 -46 -122 -55 -8 -5
-22 -12 -30 -15 -17 -6 -25 -11 -96 -49 -27 -14 -62 -35 -79 -46 -16 -10 -37
-22 -45 -26 -15 -7 -151 -103 -160 -113 -3 -3 -34 -28 -70 -55 -84 -63 -7411
-7389 -7475 -7475 -27 -36 -55 -71 -62 -78 -20 -20 -114 -160 -133 -197 -6
-11 -19 -33 -30 -50 -10 -16 -35 -64 -55 -105 -20 -41 -41 -82 -46 -90 -5 -8
-12 -22 -15 -30 -3 -8 -12 -29 -20 -47 -8 -17 -14 -37 -14 -45 0 -7 -6 -22
-14 -33 -7 -11 -16 -31 -19 -45 -3 -14 -10 -38 -15 -55 -40 -113 -86 -320
-102 -453 -5 -40 -12 -77 -15 -82 -3 -6 -10 -40 -14 -78 -5 -37 -13 -92 -19
-122 -6 -30 -18 -100 -27 -155 -9 -55 -21 -122 -27 -150 -5 -27 -14 -79 -18
-115 -5 -36 -13 -90 -19 -120 -5 -30 -15 -84 -22 -120 -7 -36 -15 -87 -19
-115 -11 -74 -30 -190 -45 -270 -12 -65 -21 -113 -61 -360 -8 -49 -20 -115
-25 -145 -33 -170 -34 -426 -3 -565 23 -102 45 -176 60 -207 8 -14 14 -31 14
-37 0 -13 64 -145 90 -186 11 -16 23 -37 27 -45 10 -22 115 -158 160 -207 21
-23 63 -63 93 -88 30 -26 64 -54 75 -64 23 -20 103 -73 125 -84 8 -4 29 -16
45 -27 17 -11 37 -23 45 -26 8 -4 43 -19 78 -35 34 -16 70 -29 80 -29 9 0 26
-7 36 -15 11 -8 31 -15 44 -15 13 0 45 -7 71 -15 139 -44 347 -56 510 -30 243
39 291 47 361 60 41 7 120 21 175 30 55 8 127 21 160 27 33 6 83 14 110 18 28
4 77 12 110 18 111 21 190 34 245 42 30 4 80 12 110 18 30 6 100 18 155 27
224 37 283 47 350 61 39 8 81 14 95 14 24 0 105 15 240 46 36 8 74 14 85 14
20 0 45 7 190 55 44 14 94 30 110 34 46 12 202 85 343 161 57 30 210 133 248
165 6 6 48 39 92 75 45 36 1734 1719 3755 3740 3250 3250 3685 3689 3764 3795
49 66 92 127 96 135 4 8 16 29 27 45 11 17 24 39 30 50 6 11 20 36 31 55 46
77 119 231 119 253 0 6 7 21 15 31 8 11 15 29 15 41 0 12 5 26 11 32 6 6 15
29 19 50 5 21 13 52 18 68 6 17 17 57 26 90 41 169 43 185 67 448 13 140 12
148 -21 462 -4 44 -13 93 -19 108 -6 16 -11 40 -11 55 0 15 -6 47 -14 72 -8
25 -22 72 -31 105 -16 57 -22 75 -61 178 -25 65 -38 94 -92 202 -68 136 -70
140 -128 225 -106 156 -93 139 -215 279 -100 115 -725 737 -819 815 -148 123
-308 225 -475 305 -60 29 -123 59 -138 67 -16 8 -35 14 -44 14 -8 0 -27 6 -41
14 -34 17 -86 35 -132 46 -60 15 -123 31 -176 46 -28 8 -62 14 -75 14 -13 0
-55 6 -94 14 -85 17 -335 25 -505 16z m450 -880 c19 -6 55 -15 80 -19 25 -5
61 -15 80 -21 118 -42 138 -51 220 -90 49 -23 63 -31 128 -72 24 -16 46 -28
50 -28 4 0 21 -13 39 -28 17 -15 54 -45 81 -66 28 -22 205 -195 395 -385 322
-324 419 -433 493 -556 42 -70 124 -240 124 -259 0 -8 6 -30 14 -48 8 -18 21
-60 29 -93 61 -242 63 -499 5 -710 -6 -22 -14 -56 -19 -75 -16 -76 -98 -266
-149 -345 -11 -16 -23 -37 -27 -45 -30 -65 -206 -253 -742 -789 -339 -339
-624 -622 -633 -629 -13 -11 -23 -9 -59 11 -24 13 -71 39 -104 57 -33 18 -66
38 -74 43 -14 12 -25 18 -93 56 -24 13 -62 36 -86 52 -24 16 -46 29 -49 29 -3
0 -22 12 -42 28 -20 15 -44 32 -53 37 -109 65 -564 412 -653 498 -7 7 -54 50
-106 96 -121 109 -340 329 -455 455 -49 54 -96 106 -105 115 -8 9 -38 44 -65
79 -27 35 -75 96 -107 135 -103 128 -327 437 -327 452 0 2 -19 32 -43 67 -24
35 -46 70 -50 78 -4 8 -16 29 -27 45 -11 17 -24 39 -30 50 -6 11 -19 34 -30
50 -11 17 -31 53 -45 80 -14 28 -37 68 -50 90 -13 22 -24 45 -25 52 0 9 1019
1034 1217 1224 163 156 357 267 588 338 83 26 191 50 245 55 82 7 424 -3 460
-14z m-3136 -2267 c3 -10 15 -31 26 -48 11 -16 24 -39 30 -50 11 -23 19 -35
78 -123 23 -35 42 -65 42 -67 0 -2 21 -34 47 -72 26 -37 67 -97 92 -133 90
-132 356 -473 411 -528 8 -9 25 -28 36 -44 81 -109 638 -673 744 -753 28 -21
141 -119 169 -146 9 -8 45 -37 81 -64 36 -27 67 -53 70 -57 16 -21 430 -320
480 -345 8 -5 60 -38 115 -74 55 -36 124 -79 153 -95 29 -16 55 -37 58 -48 5
-14 -559 -583 -2682 -2706 -1787 -1785 -2717 -2708 -2772 -2749 -115 -87 -232
-153 -342 -196 -25 -9 -60 -23 -78 -31 -18 -8 -40 -14 -48 -14 -9 0 -37 -7
-63 -15 -49 -15 -141 -33 -306 -60 -55 -9 -130 -23 -166 -31 -37 -8 -82 -14
-100 -14 -19 0 -50 -5 -69 -10 -19 -6 -64 -15 -100 -20 -36 -5 -90 -13 -120
-19 -30 -6 -100 -18 -155 -26 -55 -9 -134 -23 -175 -30 -41 -8 -120 -21 -175
-30 -55 -9 -125 -21 -155 -27 -30 -6 -71 -12 -90 -15 -19 -2 -71 -10 -115 -18
-44 -7 -125 -21 -180 -30 -55 -9 -131 -23 -170 -31 -150 -31 -299 -14 -397 46
-18 11 -42 24 -53 29 -33 15 -109 94 -146 152 -43 67 -57 104 -76 199 -15 80
-9 164 23 315 8 39 14 81 14 95 0 14 6 57 14 95 8 39 22 115 31 170 9 55 21
123 27 150 5 28 14 79 18 115 5 36 13 90 19 120 5 30 15 84 22 120 7 36 15 88
19 115 6 47 11 73 42 238 6 34 14 87 18 117 4 30 12 84 19 120 13 66 26 143
56 325 27 159 61 299 91 373 74 177 110 241 206 369 50 68 772 795 2759 2782
1480 1480 2697 2691 2704 2691 7 0 15 -8 19 -17z"/>
<path d="M4055 1371 c-112 -20 -247 -128 -294 -236 -97 -223 -10 -462 209
-572 l75 -38 3510 -3 c2102 -1 3534 1 3570 7 33 5 76 15 95 23 76 29 170 107
206 171 53 93 57 110 58 227 0 112 -1 117 -34 185 -45 89 -119 163 -207 206
l-68 34 -3540 1 c-1947 1 -3558 -2 -3580 -5z"/>
<path d="M12730 1370 c-121 -22 -248 -131 -305 -260 -16 -36 -20 -66 -20 -160
1 -111 2 -118 35 -184 33 -66 128 -176 152 -176 6 0 19 -6 27 -13 9 -8 39 -22
66 -33 47 -18 82 -19 585 -19 l535 0 68 34 c93 45 174 126 217 216 32 66 34
76 34 180 0 110 -3 120 -45 195 -5 8 -13 25 -19 37 -17 41 -110 122 -178 155
l-67 33 -520 2 c-286 0 -540 -2 -565 -7z"/>
</g>
</svg>
