<?xml version="1.0" standalone="no"?>
<!DOCTYPE svg PUBLIC "-//W3C//DTD SVG 20010904//EN"
 "http://www.w3.org/TR/2001/REC-SVG-20010904/DTD/svg10.dtd">
<svg version="1.0" xmlns="http://www.w3.org/2000/svg"
 width="384.000000pt" height="384.000000pt" viewBox="0 0 384.000000 384.000000"
 preserveAspectRatio="xMidYMid meet">
<g transform="translate(0.000000,384.000000) scale(0.100000,-0.100000)"
fill="#000000" stroke="none">
<path d="M1015 2908 c-44 -15 -91 -64 -104 -109 -26 -86 -25 -87 386 -499 205
-206 373 -382 373 -390 0 -8 -168 -184 -373 -390 -325 -326 -376 -381 -386
-418 -32 -113 78 -223 191 -191 37 10 94 63 418 386 206 205 382 373 390 373
8 0 184 -168 390 -373 326 -325 381 -376 418 -386 113 -32 223 78 191 191 -10
37 -63 94 -386 418 -205 206 -373 382 -373 390 0 8 168 184 373 390 323 324
376 381 386 417 32 114 -78 224 -191 192 -37 -10 -92 -61 -418 -386 -206 -205
-382 -373 -390 -373 -8 0 -184 168 -390 373 -319 318 -381 376 -416 385 -48
14 -49 14 -89 0z"/>
</g>
</svg>
