<?xml version="1.0" standalone="no"?>
<!DOCTYPE svg PUBLIC "-//W3C//DTD SVG 20010904//EN"
 "http://www.w3.org/TR/2001/REC-SVG-20010904/DTD/svg10.dtd">
<svg version="1.0" xmlns="http://www.w3.org/2000/svg"
 width="1536.000000pt" height="1536.000000pt" viewBox="0 0 1536.000000 1536.000000"
 preserveAspectRatio="xMidYMid meet">
<g transform="translate(0.000000,1536.000000) scale(0.100000,-0.100000)"
fill="#000000" stroke="none">
<path d="M1745 14810 c-99 -9 -206 -35 -340 -84 -91 -33 -274 -135 -319 -178
-12 -11 -32 -26 -46 -33 -55 -30 -250 -246 -307 -340 -26 -43 -105 -202 -119
-240 -30 -81 -46 -131 -54 -170 -5 -22 -15 -65 -22 -95 -11 -45 -13 -883 -13
-4510 0 -4301 1 -4458 19 -4535 23 -101 45 -173 62 -207 8 -14 14 -31 14 -38
0 -16 87 -190 105 -210 8 -9 15 -20 15 -24 0 -11 87 -124 146 -189 63 -68 181
-171 244 -212 125 -82 297 -163 390 -185 19 -4 55 -12 80 -19 117 -28 183 -34
423 -38 224 -5 266 -3 325 13 165 43 271 144 322 307 25 78 25 145 1 222 -51
161 -145 255 -306 306 -52 16 -93 19 -300 19 -257 0 -312 9 -396 59 -19 11
-44 25 -56 30 -49 22 -183 185 -183 223 0 8 -5 19 -11 25 -39 39 -39 -11 -39
4458 0 3680 2 4300 14 4360 17 80 37 140 54 157 7 7 12 18 12 26 0 17 155 172
172 172 8 0 19 5 26 12 17 17 77 37 157 54 60 12 680 14 4360 14 4643 0 4382
3 4495 -54 87 -44 188 -130 211 -181 5 -11 19 -35 30 -54 50 -84 59 -139 59
-396 0 -207 3 -248 19 -300 51 -161 145 -255 306 -306 77 -24 144 -24 222 1
162 50 254 147 308 321 15 49 17 89 12 320 -4 246 -10 313 -38 429 -7 25 -15
61 -19 80 -16 68 -90 235 -143 325 -59 97 -155 218 -236 293 -53 50 -196 162
-207 162 -4 0 -15 6 -23 14 -55 47 -293 148 -396 167 -22 4 -58 13 -80 20 -32
11 -877 14 -4455 15 -2428 0 -4451 -2 -4495 -6z"/>
<path d="M4780 11830 c-30 -4 -84 -11 -120 -15 -36 -4 -73 -12 -82 -17 -10 -5
-37 -13 -60 -18 -94 -19 -249 -87 -346 -152 -24 -15 -46 -28 -49 -28 -3 0 -35
-23 -72 -52 -86 -67 -206 -187 -263 -263 -57 -76 -138 -210 -138 -229 0 -7 -6
-19 -14 -25 -8 -6 -16 -22 -19 -34 -3 -12 -15 -47 -27 -77 -21 -54 -29 -79
-49 -170 -37 -166 -36 -61 -36 -4575 0 -4511 -1 -4429 36 -4570 6 -22 13 -56
16 -75 3 -19 12 -44 19 -55 8 -11 14 -28 14 -38 0 -16 81 -189 113 -242 31
-51 74 -112 93 -135 12 -14 40 -46 63 -73 67 -79 238 -226 291 -250 8 -4 29
-16 45 -26 98 -63 255 -124 435 -168 72 -17 247 -18 4530 -18 4279 0 4458 1
4535 18 150 35 249 69 365 129 109 56 150 81 150 91 0 4 5 7 10 7 32 0 238
192 314 292 91 121 183 296 216 413 4 17 13 44 19 60 5 17 18 66 28 110 17 76
18 283 18 4540 0 3673 -2 4468 -13 4505 -8 25 -17 63 -22 85 -14 62 -34 128
-48 152 -6 12 -12 26 -12 32 0 13 -65 146 -90 186 -11 17 -23 37 -27 45 -11
25 -94 132 -149 192 -54 59 -197 188 -209 188 -4 0 -24 12 -44 28 -48 36 -63
45 -151 88 -41 20 -87 43 -102 50 -14 8 -33 14 -41 14 -9 0 -28 6 -44 14 -49
25 -127 41 -318 66 -83 11 -8682 11 -8765 0z m8785 -877 c92 -30 188 -83 230
-127 33 -33 85 -103 85 -113 0 -5 5 -14 12 -21 17 -17 37 -77 54 -157 21 -105
21 -8615 0 -8720 -17 -80 -37 -140 -54 -157 -7 -7 -12 -18 -12 -26 0 -17 -155
-172 -172 -172 -8 0 -19 -5 -26 -12 -17 -17 -77 -37 -157 -54 -105 -21 -8615
-21 -8720 0 -80 17 -140 37 -157 54 -7 7 -16 12 -21 12 -10 0 -80 52 -113 85
-44 42 -97 138 -127 230 -16 46 -17 368 -17 4400 0 4240 1 4352 19 4410 57
181 183 307 365 366 47 16 391 17 4406 18 4038 1 4359 0 4405 -16z"/>
</g>
</svg>
