<?xml version="1.0" encoding="UTF-8"?>
<svg xmlns="http://www.w3.org/2000/svg" id="Layer_1" data-name="Layer 1" viewBox="0 0 24 24">
  <path d="M17.5,8H6.5c-.171,0-.334,.032-.5,.051v-1.051c0-3.309,2.691-6,6-6,2.245,0,4.285,1.238,5.324,3.231,.127,.246,.431,.339,.675,.212,.244-.127,.34-.43,.212-.674-1.212-2.325-3.592-3.769-6.211-3.769-3.859,0-7,3.14-7,7v1.276c-1.742,.621-3,2.271-3,4.224v7c0,2.481,2.019,4.5,4.5,4.5h11c2.481,0,4.5-2.019,4.5-4.5v-7c0-2.481-2.019-4.5-4.5-4.5Zm3.5,11.5c0,1.93-1.57,3.5-3.5,3.5H6.5c-1.93,0-3.5-1.57-3.5-3.5v-7c0-1.93,1.57-3.5,3.5-3.5h11c1.93,0,3.5,1.57,3.5,3.5v7Zm-8.5-5v3c0,.276-.224,.5-.5,.5s-.5-.224-.5-.5v-3c0-.276,.224-.5,.5-.5s.5,.224,.5,.5Z"/>
</svg>
