<?xml version="1.0" standalone="no"?>
<!DOCTYPE svg PUBLIC "-//W3C//DTD SVG 20010904//EN"
 "http://www.w3.org/TR/2001/REC-SVG-20010904/DTD/svg10.dtd">
<svg version="1.0" xmlns="http://www.w3.org/2000/svg"
 width="1536.000000pt" height="1536.000000pt" viewBox="0 0 1536.000000 1536.000000"
 preserveAspectRatio="xMidYMid meet">
<g transform="translate(0.000000,1536.000000) scale(0.100000,-0.100000)"
fill="#000000" stroke="none">
<path d="M7285 15345 c-7 -11 -34 -17 -90 -21 -107 -7 -355 -47 -475 -76 -25
-6 -63 -14 -85 -18 -39 -6 -56 -11 -161 -44 -29 -9 -59 -16 -68 -16 -8 0 -30
-6 -48 -14 -18 -8 -67 -24 -108 -36 -41 -13 -79 -27 -85 -31 -5 -5 -18 -9 -30
-9 -11 0 -29 -7 -39 -15 -11 -8 -28 -15 -37 -15 -10 0 -30 -6 -46 -14 -27 -14
-73 -34 -138 -61 -146 -61 -369 -176 -510 -262 -11 -7 -27 -16 -35 -20 -8 -4
-68 -44 -133 -88 -65 -44 -127 -85 -138 -91 -11 -6 -32 -23 -47 -36 -15 -14
-43 -36 -62 -49 -19 -13 -44 -31 -55 -40 -11 -9 -63 -52 -115 -95 -112 -92
-410 -386 -501 -495 -149 -177 -205 -250 -265 -339 -17 -25 -52 -75 -77 -113
-26 -37 -47 -69 -47 -72 0 -2 -13 -23 -29 -47 -16 -24 -39 -61 -51 -83 -12
-22 -30 -53 -40 -70 -29 -47 -196 -384 -220 -445 -12 -30 -26 -64 -32 -74 -6
-11 -14 -31 -18 -45 -5 -14 -18 -51 -30 -81 -12 -30 -25 -68 -30 -85 -5 -16
-14 -46 -21 -65 -6 -19 -17 -51 -24 -70 -7 -19 -20 -62 -29 -95 -9 -33 -24
-81 -32 -106 -7 -26 -14 -55 -14 -64 0 -10 -6 -41 -14 -69 -26 -91 -64 -309
-92 -531 -13 -103 -18 -259 -23 -758 l-6 -628 -35 -18 c-19 -11 -66 -34 -105
-52 -38 -19 -99 -51 -134 -72 -35 -21 -74 -43 -85 -48 -25 -11 -51 -27 -151
-96 -42 -29 -81 -53 -85 -53 -5 0 -13 -6 -17 -13 -4 -7 -44 -41 -88 -74 -44
-34 -91 -72 -105 -85 -14 -13 -54 -50 -90 -83 -170 -156 -347 -365 -485 -571
-56 -85 -64 -96 -75 -119 -6 -11 -19 -33 -30 -50 -10 -16 -38 -66 -60 -110
-23 -44 -45 -87 -49 -95 -5 -8 -16 -31 -24 -50 -32 -74 -50 -116 -58 -132 -12
-24 -39 -97 -49 -133 -4 -16 -18 -55 -30 -85 -12 -30 -25 -71 -30 -90 -16 -71
-33 -136 -46 -173 -8 -20 -14 -47 -14 -60 0 -12 -6 -53 -14 -92 -8 -38 -23
-124 -33 -190 -17 -113 -18 -251 -18 -2310 0 -2054 1 -2197 18 -2310 10 -66
24 -149 33 -185 8 -36 14 -74 14 -84 0 -11 7 -44 16 -75 8 -31 22 -81 30 -111
9 -30 20 -68 26 -85 5 -16 13 -43 18 -60 11 -38 29 -92 45 -130 7 -16 20 -50
30 -75 22 -56 62 -143 110 -240 44 -88 45 -91 110 -198 28 -46 55 -91 60 -101
6 -9 28 -41 50 -71 22 -30 51 -71 65 -91 89 -130 297 -357 466 -508 52 -47
320 -251 329 -251 2 0 34 -20 71 -45 36 -25 67 -45 69 -45 3 0 39 -20 81 -45
41 -25 80 -45 84 -45 5 0 32 -13 60 -30 28 -16 54 -30 57 -30 3 0 35 -13 70
-30 34 -16 68 -30 74 -30 6 0 23 -6 37 -14 49 -25 102 -46 117 -46 8 0 29 -6
47 -14 18 -8 60 -22 93 -31 33 -9 74 -21 90 -27 17 -6 50 -14 75 -18 25 -5 65
-13 90 -19 95 -21 208 -41 280 -48 98 -10 7062 -10 7160 0 72 7 185 27 280 48
25 6 65 14 90 19 25 4 59 12 75 18 17 6 57 18 90 27 33 9 75 23 93 31 18 8 39
14 47 14 8 0 29 6 47 14 18 8 58 24 88 36 73 29 161 69 180 81 8 5 22 12 30
15 22 8 157 79 222 116 35 20 302 200 308 207 3 4 34 29 70 56 170 129 455
425 570 594 14 20 43 61 65 91 22 30 45 62 50 71 6 10 33 55 60 101 65 107 66
110 110 198 50 100 88 185 110 240 9 25 22 59 29 75 18 41 36 94 46 130 5 17
13 44 18 60 25 73 36 113 43 150 4 22 12 58 18 80 14 56 37 180 58 315 17 108
18 252 18 2310 0 2069 -1 2202 -18 2315 -10 66 -25 150 -33 186 -8 37 -14 75
-14 85 0 9 -7 42 -16 73 -8 31 -22 81 -30 111 -9 30 -20 69 -26 85 -5 17 -13
44 -18 60 -10 36 -28 89 -46 130 -7 17 -20 50 -30 75 -38 98 -117 265 -176
370 -37 66 -210 330 -229 351 -8 8 -39 46 -70 84 -103 129 -255 290 -360 380
-57 49 -110 95 -118 103 -24 23 -170 132 -176 132 -4 0 -24 14 -45 30 -21 17
-40 30 -43 30 -3 0 -32 18 -66 41 -82 54 -285 161 -411 216 -19 8 -48 21 -63
29 -16 8 -35 14 -42 14 -7 0 -26 6 -42 14 -30 15 -80 33 -128 46 -16 5 -43 13
-60 18 -16 6 -57 18 -90 27 -33 9 -81 23 -106 31 -26 8 -55 14 -65 14 -11 0
-50 6 -89 14 -260 55 5 51 -3635 56 l-3345 5 -3 345 c-5 461 9 661 65 940 23
115 65 273 89 328 8 18 14 43 14 55 0 12 7 31 15 41 8 11 15 29 15 40 0 12 7
30 15 40 8 11 15 26 15 33 0 22 123 279 193 403 117 208 313 465 500 655 81
83 166 164 190 182 23 17 51 40 62 50 27 25 223 173 229 173 3 0 33 19 68 43
35 24 70 46 78 50 8 4 42 23 75 42 58 33 235 122 302 151 105 46 162 68 233
90 30 9 70 23 88 30 18 8 42 14 53 14 11 0 30 5 42 12 12 6 40 15 62 19 50 10
124 26 197 45 32 8 72 14 90 14 18 0 67 7 108 16 110 24 691 24 800 0 41 -9
90 -16 108 -16 18 0 58 -6 90 -14 62 -16 134 -32 197 -46 38 -7 55 -12 135
-40 19 -7 49 -15 65 -18 17 -2 39 -11 50 -18 11 -8 27 -14 37 -14 9 0 34 -7
55 -16 21 -9 53 -23 71 -30 74 -31 102 -44 202 -93 111 -54 186 -94 235 -126
149 -95 211 -137 280 -189 44 -33 82 -62 85 -65 3 -4 43 -38 90 -78 233 -196
468 -477 649 -776 23 -37 41 -70 41 -72 0 -16 81 -119 134 -170 88 -85 183
-133 321 -161 88 -18 142 -18 230 0 82 17 139 37 186 65 19 12 44 25 55 30 31
14 136 119 171 171 81 123 105 205 106 360 0 122 -15 197 -53 268 -5 9 -11 24
-14 32 -4 8 -15 29 -25 45 -11 17 -29 48 -41 70 -12 22 -35 59 -51 83 -16 24
-29 45 -29 47 0 3 -19 33 -43 67 -24 35 -65 95 -92 133 -26 39 -69 96 -94 128
-25 32 -66 84 -91 116 -103 130 -423 454 -565 571 -55 45 -109 89 -120 99 -11
9 -38 30 -60 46 -22 16 -42 33 -45 36 -6 8 -312 213 -331 223 -8 3 -27 15 -44
26 -16 10 -52 31 -80 45 -27 14 -66 35 -85 47 -19 11 -53 29 -75 40 -22 11
-47 24 -55 29 -8 5 -22 12 -30 15 -8 3 -44 20 -80 37 -36 16 -78 36 -95 43
-16 6 -46 19 -65 27 -19 8 -55 23 -80 32 -25 10 -58 23 -75 30 -34 14 -71 27
-165 57 -36 11 -81 26 -100 33 -86 30 -139 45 -159 45 -12 0 -31 5 -42 11 -11
6 -41 14 -67 18 -26 5 -67 13 -92 19 -120 29 -368 69 -475 76 -54 4 -84 11
-91 21 -17 23 -754 23 -769 0z m3780 -6406 c111 -12 226 -33 296 -55 26 -8 54
-14 63 -14 8 0 30 -6 48 -14 18 -8 53 -22 78 -31 88 -34 235 -104 285 -136 17
-10 36 -22 44 -26 24 -11 163 -111 211 -151 173 -145 408 -432 471 -576 5 -12
13 -28 18 -36 19 -31 63 -127 77 -165 76 -211 106 -340 124 -520 14 -148 14
-4063 0 -4207 -11 -110 -33 -232 -56 -313 -28 -98 -77 -242 -93 -273 -5 -9
-25 -50 -45 -90 -127 -253 -338 -506 -561 -672 -106 -79 -127 -94 -160 -110
-11 -6 -33 -19 -50 -29 -30 -19 -153 -81 -210 -105 -37 -16 -81 -31 -165 -57
-36 -11 -85 -27 -110 -35 -25 -8 -57 -14 -72 -14 -14 0 -55 -8 -90 -18 -59
-16 -257 -17 -3498 -17 -3241 0 -3439 1 -3498 17 -35 10 -76 18 -90 18 -15 0
-47 6 -72 14 -25 8 -72 22 -105 31 -33 9 -72 23 -87 31 -14 8 -32 14 -39 14
-8 0 -54 20 -104 44 -49 24 -97 47 -105 50 -17 8 -36 19 -97 59 -24 15 -45 27
-48 27 -17 0 -213 160 -295 241 -113 111 -237 263 -295 361 -24 40 -70 127
-93 173 -13 28 -28 58 -33 67 -16 31 -66 177 -92 268 -26 90 -46 198 -57 310
-14 145 -14 4063 0 4215 12 117 32 230 56 306 8 26 14 54 14 63 0 8 6 30 14
48 8 18 22 53 31 78 32 85 102 232 136 285 10 17 22 37 26 45 12 26 136 194
172 235 100 110 262 263 311 291 16 10 30 22 30 26 0 4 5 8 11 8 6 0 28 13 48
28 20 16 43 32 51 35 8 4 29 16 45 27 17 11 37 22 45 26 8 3 22 9 30 14 34 20
142 68 210 95 25 9 60 23 78 31 18 8 40 14 48 14 9 0 37 6 63 14 66 21 184 44
276 54 121 13 6686 15 6810 1z"/>
<path d="M7575 6381 c-64 -8 -162 -37 -171 -52 -3 -5 -12 -9 -20 -9 -17 0
-106 -61 -157 -109 -45 -42 -127 -156 -127 -176 0 -8 -4 -16 -9 -19 -4 -3 -19
-36 -32 -73 l-24 -68 0 -765 0 -765 22 -62 c61 -168 175 -307 311 -376 17 -9
45 -24 61 -32 16 -8 37 -15 48 -15 10 0 36 -7 58 -15 24 -8 77 -14 135 -14 58
0 111 6 135 14 22 8 48 15 58 15 11 0 31 6 45 14 15 8 34 17 42 21 55 22 151
97 203 158 52 61 98 143 130 230 l22 62 0 765 c0 759 0 765 -22 825 -77 216
-216 355 -423 425 -63 21 -197 31 -285 21z"/>
</g>
</svg>
